<svg width="120" height="120" viewBox="0 0 120 120" fill="none" xmlns="http://www.w3.org/2000/svg">
<g clip-path="url(#clip0_430_400)">
<g filter="url(#filter0_f_430_400)">
<path d="M87.4218 103.945C87.4218 104.916 75.1446 105.703 59.9999 105.703C44.8552 105.703 32.578 104.916 32.578 103.945C32.578 102.974 44.8552 102.188 59.9999 102.188C75.1446 102.188 87.4218 102.974 87.4218 103.945Z" fill="#BAC7CB"/>
</g>
<path d="M41.5942 79.9224C41.338 79.4824 40.7713 79.3321 40.3279 79.5856L38.4268 80.6741V78.4976C38.4268 77.9901 38.0116 77.5784 37.4998 77.5784C36.9879 77.5784 36.5727 77.9901 36.5727 78.4976V80.6741L34.6716 79.5856C34.2283 79.3316 33.6615 79.4824 33.4054 79.9224C33.1497 80.362 33.3012 80.9239 33.7446 81.1779L35.6456 82.2659L33.7446 83.354C33.3012 83.6079 33.1497 84.1699 33.4054 84.6094C33.5771 84.9044 33.8886 85.0695 34.2091 85.0695C34.3662 85.0695 34.5257 85.0295 34.6716 84.9462L36.5727 83.8577V86.0343C36.5727 86.5418 36.9879 86.9534 37.4998 86.9534C38.0116 86.9534 38.4268 86.5418 38.4268 86.0343V83.8577L40.3279 84.9462C40.4738 85.0295 40.6333 85.0695 40.7905 85.0695C41.1109 85.0695 41.4225 84.9044 41.5942 84.6094C41.8503 84.1699 41.6983 83.6079 41.255 83.354L39.3539 82.2659L41.255 81.1779C41.6983 80.9239 41.8503 80.362 41.5942 79.9224Z" fill="#9DB7BF"/>
<path d="M86.2548 83.3537L84.3538 82.2656L86.2548 81.1776C86.6982 80.9236 86.8502 80.3617 86.5941 79.9221C86.3379 79.4821 85.7711 79.3318 85.3278 79.5853L83.4267 80.6738V78.4973C83.4267 77.9898 83.0115 77.5781 82.4997 77.5781C81.9878 77.5781 81.5726 77.9898 81.5726 78.4973V80.6738L79.6715 79.5853C79.2282 79.3313 78.6614 79.4821 78.4052 79.9221C78.1496 80.3617 78.3011 80.9236 78.7445 81.1776L80.6455 82.2656L78.7445 83.3537C78.3011 83.6076 78.1496 84.1696 78.4052 84.6091C78.577 84.9041 78.8885 85.0692 79.2089 85.0692C79.3661 85.0692 79.5256 85.0292 79.6715 84.9459L81.5726 83.8574V86.034C81.5726 86.5415 81.9878 86.9531 82.4997 86.9531C83.0115 86.9531 83.4267 86.5415 83.4267 86.034V83.8574L85.3278 84.9459C85.4737 85.0292 85.6332 85.0692 85.7904 85.0692C86.1108 85.0692 86.4223 84.9041 86.5941 84.6091C86.8502 84.1696 86.6982 83.6076 86.2548 83.3537Z" fill="#9DB7BF"/>
<path d="M64.0941 79.9221C63.8379 79.4825 63.2712 79.3318 62.8278 79.5853L60.9268 80.6738V78.4973C60.9268 77.9898 60.5116 77.5781 59.9998 77.5781C59.4879 77.5781 59.0727 77.9898 59.0727 78.4973V80.6738L57.1717 79.5853C56.7283 79.3318 56.1616 79.4825 55.9055 79.9221C55.6493 80.3617 55.8013 80.9236 56.2447 81.1776L58.1457 82.2656L56.2447 83.3537C55.8013 83.6076 55.6493 84.1696 55.9055 84.6091C56.0772 84.9041 56.3887 85.0692 56.7091 85.0692C56.8663 85.0692 57.0258 85.0292 57.1717 84.9459L59.0727 83.8574V86.034C59.0727 86.5415 59.4879 86.9531 59.9998 86.9531C60.5116 86.9531 60.9268 86.5415 60.9268 86.034V83.8579L62.8278 84.9459C62.9737 85.0297 63.1332 85.0692 63.2904 85.0692C63.6108 85.0692 63.9223 84.9041 64.0941 84.6096C64.3497 84.17 64.1982 83.6076 63.7549 83.3541L61.8539 82.2656L63.7549 81.1776C64.1982 80.9236 64.3502 80.3617 64.0941 79.9221Z" fill="#9DB7BF"/>
<path d="M46.3128 91.5236C46.1207 91.1936 45.6956 91.0809 45.3631 91.271L43.9373 92.0874V90.455C43.9373 90.0744 43.6259 89.7656 43.242 89.7656C42.8581 89.7656 42.5467 90.0744 42.5467 90.455V92.0874L41.1209 91.271C40.7884 91.0805 40.3633 91.1936 40.1712 91.5236C39.9794 91.8533 40.0931 92.2747 40.4256 92.4652L41.8514 93.2812L40.4256 94.0973C40.0931 94.2878 39.9794 94.7092 40.1712 95.0389C40.3 95.2601 40.5336 95.3839 40.7739 95.3839C40.8918 95.3839 41.0115 95.3539 41.1209 95.2915L42.5467 94.4751V96.1075C42.5467 96.4881 42.8581 96.7969 43.242 96.7969C43.6259 96.7969 43.9373 96.4881 43.9373 96.1075V94.4751L45.3631 95.2915C45.4725 95.3539 45.5922 95.3839 45.71 95.3839C45.9504 95.3839 46.184 95.2601 46.3128 95.0389C46.5049 94.7092 46.3909 94.2878 46.0584 94.0973L44.6326 93.2812L46.0584 92.4652C46.3909 92.2747 46.5049 91.8533 46.3128 91.5236Z" fill="#9DB7BF"/>
<path d="M79.8083 94.0973L78.3825 93.2812L79.8083 92.4652C80.1408 92.2747 80.2548 91.8533 80.0627 91.5236C79.8705 91.1936 79.4455 91.0809 79.113 91.271L77.6872 92.0874V90.455C77.6872 90.0744 77.3758 89.7656 76.9919 89.7656C76.608 89.7656 76.2966 90.0744 76.2966 90.455V92.0874L74.8708 91.271C74.5382 91.0805 74.1132 91.1936 73.9211 91.5236C73.7293 91.8533 73.8429 92.2747 74.1755 92.4652L75.6013 93.2812L74.1755 94.0973C73.8429 94.2878 73.7293 94.7092 73.9211 95.0389C74.0498 95.2601 74.2835 95.3839 74.5238 95.3839C74.6417 95.3839 74.7613 95.3539 74.8708 95.2915L76.2966 94.4751V96.1075C76.2966 96.4881 76.608 96.7969 76.9919 96.7969C77.3758 96.7969 77.6872 96.4881 77.6872 96.1075V94.4751L79.113 95.2915C79.2224 95.3539 79.342 95.3839 79.4599 95.3839C79.7002 95.3839 79.9339 95.2601 80.0627 95.0389C80.2548 94.7092 80.1408 94.2878 79.8083 94.0973Z" fill="#9DB7BF"/>
<path d="M63.1877 91.5236C62.9956 91.1939 62.5705 91.0809 62.238 91.271L60.8122 92.0874V90.455C60.8122 90.0744 60.5008 89.7656 60.1169 89.7656C59.7331 89.7656 59.4217 90.0744 59.4217 90.455V92.0874L57.9959 91.271C57.6634 91.0809 57.2383 91.1939 57.0462 91.5236C56.8541 91.8533 56.9681 92.2747 57.3006 92.4652L58.7264 93.2812L57.3006 94.0973C56.9681 94.2878 56.8541 94.7092 57.0462 95.0389C57.175 95.2601 57.4086 95.3839 57.649 95.3839C57.7668 95.3839 57.8865 95.3539 57.9959 95.2915L59.4217 94.4751V96.1075C59.4217 96.4881 59.7331 96.7969 60.1169 96.7969C60.5008 96.7969 60.8122 96.4881 60.8122 96.1075V94.4755L62.238 95.2915C62.3474 95.3543 62.4671 95.3839 62.5849 95.3839C62.8252 95.3839 63.0589 95.2601 63.1877 95.0392C63.3794 94.7095 63.2658 94.2878 62.9333 94.0976L61.5075 93.2812L62.9333 92.4652C63.2658 92.2747 63.3798 91.8533 63.1877 91.5236Z" fill="#9DB7BF"/>
<path d="M104.765 58.8066C104.765 67.1027 98.0278 73.8281 89.7135 73.8281H35.2476C24.1953 73.8281 15.2343 64.8865 15.2343 53.8521C15.2343 42.821 24.1953 33.8762 35.2476 33.8762C36.2388 33.8762 37.2131 33.9521 38.1684 34.0903C42.688 25.1318 51.983 18.9844 62.7204 18.9844C75.7129 18.9844 86.5972 27.9882 89.4567 40.0848C89.742 41.2925 89.9481 42.5298 90.0664 43.7903V43.7935C98.2138 43.9791 104.765 50.6287 104.765 58.8066Z" fill="#BAC7CB" fill-opacity="0.4"/>
<g filter="url(#filter1_b_430_400)">
<path d="M104.765 58.8066C104.765 67.1027 98.0278 73.8281 89.7135 73.8281H35.2476C24.1953 73.8281 15.2343 64.8865 15.2343 53.8521C15.2343 42.821 24.1953 33.8762 35.2476 33.8762C36.2388 33.8762 37.2131 33.9521 38.1684 34.0903C42.688 25.1318 51.983 18.9844 62.7204 18.9844C75.7129 18.9844 86.5972 27.9882 89.4567 40.0848C89.742 41.2925 89.9481 42.5298 90.0664 43.7903V43.7935C98.2138 43.9791 104.765 50.6287 104.765 58.8066V58.8066Z" fill="url(#paint0_linear_430_400)"/>
</g>
<g filter="url(#filter2_b_430_400)">
<path fill-rule="evenodd" clip-rule="evenodd" d="M38.435 34.6025L38.1013 34.5542C37.1667 34.419 36.2148 34.3449 35.2476 34.3449C24.4534 34.3449 15.703 43.0807 15.703 53.8521C15.703 64.6268 24.4533 73.3594 35.2476 73.3594H89.7135C97.7698 73.3594 104.297 66.8429 104.297 58.8066C104.297 50.8849 97.95 44.442 90.0557 44.2621L89.5977 44.2517V43.8124C89.4811 42.5814 89.2793 41.3728 89.0005 40.1926C86.19 28.3033 75.4911 19.4531 62.7204 19.4531C52.1665 19.4531 43.0298 25.495 38.5869 34.3014L38.435 34.6025ZM90.0664 43.7903V43.7935C98.2138 43.9791 104.765 50.6286 104.765 58.8066C104.765 67.1027 98.0278 73.8281 89.7135 73.8281H35.2476C24.1953 73.8281 15.2343 64.8865 15.2343 53.8521C15.2343 42.821 24.1953 33.8762 35.2476 33.8762C36.2388 33.8762 37.2131 33.9521 38.1684 34.0903C42.688 25.1318 51.983 18.9844 62.7204 18.9844C75.7129 18.9844 86.5972 27.9882 89.4567 40.0848C89.742 41.2925 89.9481 42.5298 90.0664 43.7903Z" fill="url(#paint1_linear_430_400)"/>
</g>
</g>
<defs>
<filter id="filter0_f_430_400" x="17.6798" y="87.2893" width="84.6401" height="33.3119" filterUnits="userSpaceOnUse" color-interpolation-filters="sRGB">
<feFlood flood-opacity="0" result="BackgroundImageFix"/>
<feBlend mode="normal" in="SourceGraphic" in2="BackgroundImageFix" result="shape"/>
<feGaussianBlur stdDeviation="7.44908" result="effect1_foregroundBlur_430_400"/>
</filter>
<filter id="filter1_b_430_400" x="-15.8036" y="-12.0535" width="151.607" height="116.919" filterUnits="userSpaceOnUse" color-interpolation-filters="sRGB">
<feFlood flood-opacity="0" result="BackgroundImageFix"/>
<feGaussianBlur in="BackgroundImageFix" stdDeviation="15.5189"/>
<feComposite in2="SourceAlpha" operator="in" result="effect1_backgroundBlur_430_400"/>
<feBlend mode="normal" in="SourceGraphic" in2="effect1_backgroundBlur_430_400" result="shape"/>
</filter>
<filter id="filter2_b_430_400" x="-15.8036" y="-12.0535" width="151.607" height="116.919" filterUnits="userSpaceOnUse" color-interpolation-filters="sRGB">
<feFlood flood-opacity="0" result="BackgroundImageFix"/>
<feGaussianBlur in="BackgroundImageFix" stdDeviation="15.5189"/>
<feComposite in2="SourceAlpha" operator="in" result="effect1_backgroundBlur_430_400"/>
<feBlend mode="normal" in="SourceGraphic" in2="effect1_backgroundBlur_430_400" result="shape"/>
</filter>
<linearGradient id="paint0_linear_430_400" x1="-10.5" y1="-1.5" x2="92.9296" y2="73.8281" gradientUnits="userSpaceOnUse">
<stop offset="0.416176" stop-color="#E1E1E1" stop-opacity="0.7"/>
<stop offset="1" stop-color="white" stop-opacity="0"/>
</linearGradient>
<linearGradient id="paint1_linear_430_400" x1="8.37826" y1="33.4364" x2="40.4343" y2="56.4931" gradientUnits="userSpaceOnUse">
<stop stop-color="white"/>
<stop offset="1" stop-color="white" stop-opacity="0"/>
</linearGradient>
<clipPath id="clip0_430_400">
<rect width="120" height="120" rx="60" fill="white"/>
</clipPath>
</defs>
</svg>
