<svg width="18" height="14" viewBox="0 0 18 14" fill="none" xmlns="http://www.w3.org/2000/svg">
<path fill-rule="evenodd" clip-rule="evenodd" d="M2.88419 2.31628C3.00648 2.17168 3.18925 2.07986 3.39346 2.07986H15.0601C15.2643 2.07986 15.4471 2.17168 15.5694 2.31628L9.22679 6.54468L2.88419 2.31628ZM0.726863 2.72671C0.726652 2.73788 0.726628 2.74905 0.726791 2.7602V11.0799C0.726791 12.5526 1.9207 13.7465 3.39346 13.7465H15.0601C16.5329 13.7465 17.7268 12.5526 17.7268 11.0799V2.76021C17.7269 2.74905 17.7269 2.73787 17.7267 2.7267C17.7161 1.26307 16.5263 0.0798645 15.0601 0.0798645H3.39346C1.92731 0.0798645 0.737518 1.26307 0.726863 2.72671ZM15.7268 4.61505V11.0799C15.7268 11.4481 15.4283 11.7465 15.0601 11.7465H3.39346C3.02527 11.7465 2.72679 11.4481 2.72679 11.0799V4.61505L8.67209 8.57858C9.00799 8.80251 9.44559 8.80251 9.78149 8.57858L15.7268 4.61505Z" fill="#333333"/>
</svg>
