<svg width="14" height="14" viewBox="0 0 14 14" fill="none" xmlns="http://www.w3.org/2000/svg">
<path d="M2.1875 3.375C3.11948 3.375 3.875 2.61948 3.875 1.6875C3.875 0.75552 3.11948 0 2.1875 0C1.25552 0 0.5 0.75552 0.5 1.6875C0.5 2.61948 1.25552 3.375 2.1875 3.375Z" fill="#333333"/>
<path d="M3.59375 4.5H0.78125C0.626 4.5 0.5 4.626 0.5 4.78125V13.2188C0.5 13.374 0.626 13.5 0.78125 13.5H3.59375C3.749 13.5 3.875 13.374 3.875 13.2188V4.78125C3.875 4.626 3.749 4.5 3.59375 4.5Z" fill="#333333"/>
<path d="M11.9733 4.11244C10.7712 3.70069 9.26769 4.06238 8.366 4.71094C8.33506 4.59 8.22481 4.5 8.09375 4.5H5.28125C5.126 4.5 5 4.626 5 4.78125V13.2188C5 13.374 5.126 13.5 5.28125 13.5H8.09375C8.249 13.5 8.375 13.374 8.375 13.2188V7.155C8.8295 6.7635 9.41506 6.63863 9.89431 6.84225C10.3589 7.03856 10.625 7.51781 10.625 8.15625V13.2188C10.625 13.374 10.751 13.5 10.9062 13.5H13.7188C13.874 13.5 14 13.374 14 13.2188V7.58981C13.9679 5.2785 12.8806 4.42294 11.9733 4.11244Z" fill="#333333"/>
</svg>
