<svg width="34" height="34" viewBox="0 0 34 34" fill="none" xmlns="http://www.w3.org/2000/svg">
<path d="M14.45 25.5C14.6754 25.5 14.8916 25.5896 15.051 25.749C15.2104 25.9084 15.3 26.1246 15.3 26.35C15.3 26.5754 15.2104 26.7916 15.051 26.951C14.8916 27.1105 14.6754 27.2 14.45 27.2C14.2245 27.2 14.0083 27.1105 13.8489 26.951C13.6895 26.7916 13.6 26.5754 13.6 26.35C13.6 26.1246 13.6895 25.9084 13.8489 25.749C14.0083 25.5896 14.2245 25.5 14.45 25.5ZM19.55 25.5C19.7754 25.5 19.9916 25.5896 20.151 25.749C20.3104 25.9084 20.4 26.1246 20.4 26.35C20.4 26.5754 20.3104 26.7916 20.151 26.951C19.9916 27.1105 19.7754 27.2 19.55 27.2C19.3245 27.2 19.1083 27.1105 18.9489 26.951C18.7895 26.7916 18.7 26.5754 18.7 26.35C18.7 26.1246 18.7895 25.9084 18.9489 25.749C19.1083 25.5896 19.3245 25.5 19.55 25.5ZM11.9 23.8C12.1254 23.8 12.3416 23.8896 12.501 24.049C12.6604 24.2084 12.75 24.4246 12.75 24.65C12.75 24.8754 12.6604 25.0916 12.501 25.251C12.3416 25.4105 12.1254 25.5 11.9 25.5C11.6745 25.5 11.4583 25.4105 11.2989 25.251C11.1395 25.0916 11.05 24.8754 11.05 24.65C11.05 24.4246 11.1395 24.2084 11.2989 24.049C11.4583 23.8896 11.6745 23.8 11.9 23.8ZM17 23.8C17.2254 23.8 17.4416 23.8896 17.601 24.049C17.7604 24.2084 17.85 24.4246 17.85 24.65C17.85 24.8754 17.7604 25.0916 17.601 25.251C17.4416 25.4105 17.2254 25.5 17 25.5C16.7745 25.5 16.5583 25.4105 16.3989 25.251C16.2395 25.0916 16.15 24.8754 16.15 24.65C16.15 24.4246 16.2395 24.2084 16.3989 24.049C16.5583 23.8896 16.7745 23.8 17 23.8ZM22.1 23.8C22.3254 23.8 22.5416 23.8896 22.701 24.049C22.8604 24.2084 22.95 24.4246 22.95 24.65C22.95 24.8754 22.8604 25.0916 22.701 25.251C22.5416 25.4105 22.3254 25.5 22.1 25.5C21.8745 25.5 21.6583 25.4105 21.4989 25.251C21.3395 25.0916 21.25 24.8754 21.25 24.65C21.25 24.4246 21.3395 24.2084 21.4989 24.049C21.6583 23.8896 21.8745 23.8 22.1 23.8ZM17 6.8C21.1905 6.8 23.5671 9.4758 23.9122 12.7058H24.0176C26.7138 12.7058 28.9 14.8087 28.9 17.4029C28.9 19.9971 26.7138 22.1 24.0176 22.1H9.98238C7.28618 22.1 5.09998 19.9971 5.09998 17.4029C5.09998 14.9039 7.12638 12.8622 9.68488 12.7143L10.0878 12.7058C10.4363 9.4537 12.8095 6.8 17 6.8Z" fill="#555555"/>
</svg>
