<svg width="34" height="34" viewBox="0 0 34 34" fill="none" xmlns="http://www.w3.org/2000/svg">
<path d="M18.4166 28.3333C18.7923 28.3333 19.1527 28.4826 19.4183 28.7483C19.684 29.0139 19.8333 29.3743 19.8333 29.75C19.8333 30.1257 19.684 30.4861 19.4183 30.7517C19.1527 31.0174 18.7923 31.1667 18.4166 31.1667C18.0409 31.1667 17.6806 31.0174 17.4149 30.7517C17.1492 30.4861 16.9999 30.1257 16.9999 29.75C16.9999 29.3743 17.1492 29.0139 17.4149 28.7483C17.6806 28.4826 18.0409 28.3333 18.4166 28.3333ZM13.4583 26.9167C13.834 26.9167 14.1943 27.0659 14.46 27.3316C14.7257 27.5973 14.8749 27.9576 14.8749 28.3333C14.8749 28.7091 14.7257 29.0694 14.46 29.3351C14.1943 29.6007 13.834 29.75 13.4583 29.75C13.0826 29.75 12.7222 29.6007 12.4565 29.3351C12.1909 29.0694 12.0416 28.7091 12.0416 28.3333C12.0416 27.9576 12.1909 27.5973 12.4565 27.3316C12.7222 27.0659 13.0826 26.9167 13.4583 26.9167ZM23.3749 26.9167C23.7507 26.9167 24.111 27.0659 24.3767 27.3316C24.6424 27.5973 24.7916 27.9576 24.7916 28.3333C24.7916 28.7091 24.6424 29.0694 24.3767 29.3351C24.111 29.6007 23.7507 29.75 23.3749 29.75C22.9992 29.75 22.6389 29.6007 22.3732 29.3351C22.1075 29.0694 21.9583 28.7091 21.9583 28.3333C21.9583 27.9576 22.1075 27.5973 22.3732 27.3316C22.6389 27.0659 22.9992 26.9167 23.3749 26.9167ZM18.4194 8.51275C22.9074 8.51275 25.4546 11.4835 25.8244 15.0719H25.9377C26.6237 15.071 27.3033 15.2052 27.9374 15.4669C28.5716 15.7287 29.148 16.1127 29.6337 16.5973C30.1194 17.0818 30.5049 17.6572 30.7681 18.2908C31.0314 18.9243 31.1673 19.6035 31.168 20.2895C31.1671 20.9754 31.0311 21.6545 30.7677 22.2878C30.5044 22.9212 30.1189 23.4965 29.6332 23.9808C29.1475 24.4652 28.5712 24.8491 27.9371 25.1108C27.303 25.3724 26.6236 25.5066 25.9377 25.5057H10.8998C10.2139 25.5066 9.53446 25.3724 8.90039 25.1108C8.26632 24.8491 7.68999 24.4652 7.20431 23.9808C6.71863 23.4965 6.33311 22.9212 6.06975 22.2878C5.8064 21.6545 5.67038 20.9754 5.66945 20.2895C5.67019 19.6035 5.80608 18.9243 6.06935 18.2908C6.33262 17.6572 6.71811 17.0818 7.20381 16.5973C7.68951 16.1127 8.2659 15.7287 8.90006 15.4669C9.53423 15.2052 10.2137 15.071 10.8998 15.0719H11.0131C11.3857 11.4594 13.9314 8.51275 18.4194 8.51275ZM9.33437 2.83333C10.4634 2.89422 11.5619 3.22142 12.5403 3.78817C13.9771 4.61521 15.0825 5.91495 15.6683 7.46583C12.8576 8.26342 10.8459 10.302 10.0101 13.0574L9.91237 13.4045L9.8302 13.7417L9.53836 13.7969C7.94276 14.1346 6.52812 15.0498 5.56603 16.3668C4.5477 15.8273 3.67444 15.0502 3.02028 14.1015C2.92786 13.9673 2.86753 13.8137 2.84395 13.6525C2.82037 13.4913 2.83418 13.3269 2.88429 13.1719C2.93441 13.0169 3.0195 12.8755 3.13299 12.7586C3.24647 12.6417 3.38532 12.5525 3.53878 12.4978C5.86636 11.6648 7.1187 10.727 7.83695 9.3585C8.61895 7.86392 8.76345 6.27867 8.24353 4.14942C8.20354 3.98789 8.20205 3.81923 8.23918 3.65702C8.27631 3.49481 8.35102 3.34359 8.45729 3.21554C8.56356 3.08749 8.69843 2.98619 8.85101 2.9198C9.0036 2.85342 9.16823 2.8238 9.33437 2.83333Z" fill="#555555"/>
</svg>
