<svg width="34" height="34" viewBox="0 0 34 34" fill="none" xmlns="http://www.w3.org/2000/svg">
<path d="M18.7 28.3322C19.0008 28.3322 19.2892 28.4517 19.5018 28.6643C19.7145 28.877 19.8339 29.1654 19.8339 29.4661C19.8339 29.7668 19.7145 30.0552 19.5018 30.2679C19.2892 30.4805 19.0008 30.6 18.7 30.6C18.3993 30.6 18.1109 30.4805 17.8982 30.2679C17.6856 30.0552 17.5661 29.7668 17.5661 29.4661C17.5661 29.1654 17.6856 28.877 17.8982 28.6643C18.1109 28.4517 18.3993 28.3322 18.7 28.3322ZM14.7339 27.2C14.8864 27.1941 15.0385 27.219 15.1811 27.2733C15.3238 27.3276 15.454 27.4101 15.5639 27.5159C15.6739 27.6217 15.7614 27.7486 15.8212 27.889C15.8809 28.0294 15.9117 28.1804 15.9117 28.333C15.9117 28.4856 15.8809 28.6367 15.8212 28.7771C15.7614 28.9175 15.6739 29.0444 15.5639 29.1502C15.454 29.256 15.3238 29.3385 15.1811 29.3928C15.0385 29.4471 14.8864 29.472 14.7339 29.4661C14.441 29.4547 14.1639 29.3304 13.9607 29.1192C13.7574 28.9079 13.6439 28.6262 13.6439 28.333C13.6439 28.0399 13.7574 27.7582 13.9607 27.5469C14.1639 27.3357 14.441 27.2113 14.7339 27.2ZM22.6661 27.2C22.8186 27.1941 22.9707 27.219 23.1133 27.2733C23.256 27.3276 23.3862 27.4101 23.4961 27.5159C23.6061 27.6217 23.6936 27.7486 23.7534 27.889C23.8131 28.0294 23.8439 28.1804 23.8439 28.333C23.8439 28.4856 23.8131 28.6367 23.7534 28.7771C23.6936 28.9175 23.6061 29.0444 23.4961 29.1502C23.3862 29.256 23.256 29.3385 23.1133 29.3928C22.9707 29.4471 22.8186 29.472 22.6661 29.4661C22.3732 29.4547 22.0961 29.3304 21.8929 29.1192C21.6896 28.9079 21.5761 28.6262 21.5761 28.333C21.5761 28.0399 21.6896 27.7582 21.8929 27.5469C22.0961 27.3357 22.3732 27.2113 22.6661 27.2ZM18.7 10.2C22.8888 10.2 25.2671 12.8741 25.6122 16.1058H25.7176C28.4138 16.1058 30.6 18.2087 30.6 20.8029C30.6 23.3971 28.4138 25.5 25.7176 25.5H11.6824C8.98623 25.5 6.80003 23.3971 6.80003 20.8029C6.80003 18.2087 8.98623 16.1058 11.6824 16.1058H11.7878C12.1346 12.852 14.5095 10.2 18.7 10.2ZM6.46513 14.79C6.53048 14.9785 6.52746 15.1839 6.4566 15.3704C6.38574 15.5569 6.25155 15.7125 6.07753 15.81L5.93813 15.8712L4.57643 16.3404C4.37547 16.4107 4.15545 16.4031 3.95987 16.3189C3.76429 16.2348 3.60739 16.0804 3.52021 15.8862C3.43303 15.6919 3.42191 15.4721 3.48906 15.27C3.55621 15.068 3.69673 14.8985 3.88283 14.7951L4.02223 14.7339L5.38563 14.2647C5.59867 14.1916 5.83202 14.206 6.03442 14.3048C6.23682 14.4036 6.39173 14.5788 6.46513 14.7917V14.79ZM15.164 7.64999C15.7284 7.92539 16.2265 8.28409 16.6481 8.70399C13.6527 9.32279 11.4971 11.3101 10.625 14.0692L10.5145 14.45L10.4363 14.7679L10.1541 14.8189C9.39997 14.9742 8.68007 15.2644 8.02913 15.6757C7.37204 14.6522 7.06764 13.4418 7.16234 12.2292C7.25704 11.0166 7.74564 9.8682 8.55366 8.95907C9.36169 8.04995 10.4448 7.42997 11.6379 7.19362C12.8311 6.95728 14.0687 7.11755 15.1623 7.64999H15.164ZM4.95893 7.93899L5.10003 7.99339L6.39543 8.62409C6.5864 8.71693 6.7357 8.87787 6.81396 9.07526C6.89223 9.27265 6.89378 9.49218 6.81831 9.69065C6.74284 9.88912 6.59583 10.0522 6.40619 10.1477C6.21655 10.2432 5.99803 10.2643 5.79363 10.2068L5.64913 10.1524L4.35543 9.52169C4.16446 9.42886 4.01515 9.26791 3.93689 9.07053C3.85863 8.87314 3.85708 8.65361 3.93254 8.45513C4.00801 8.25666 4.15503 8.09362 4.34467 7.9981C4.5343 7.90258 4.75282 7.88149 4.95723 7.93899H4.95893ZM16.983 3.90149C17.162 3.98882 17.3047 4.13623 17.3861 4.31798C17.4675 4.49974 17.4825 4.70431 17.4284 4.89599L17.374 5.03879L16.7433 6.33419C16.6505 6.52516 16.4895 6.67447 16.2922 6.75273C16.0948 6.83099 15.8752 6.83254 15.6768 6.75708C15.4783 6.68161 15.3153 6.53459 15.2197 6.34495C15.1242 6.15532 15.1031 5.9368 15.1606 5.73239L15.215 5.58789L15.8457 4.29249C15.8947 4.19189 15.963 4.10195 16.0468 4.02781C16.1306 3.95368 16.2282 3.89682 16.334 3.8605C16.4399 3.82417 16.5518 3.80909 16.6635 3.81613C16.7751 3.82316 16.8843 3.85217 16.9847 3.90149H16.983ZM10.54 3.84709L10.6029 3.98649L11.0721 5.34989C11.1411 5.55059 11.1325 5.76982 11.048 5.9645C10.9636 6.15918 10.8093 6.31522 10.6156 6.40194C10.4219 6.48866 10.2028 6.49979 10.0013 6.43315C9.79986 6.36651 9.6306 6.22691 9.52683 6.04179L9.46393 5.90239L8.99643 4.54069C8.92854 4.34047 8.9377 4.12214 9.02213 3.92831C9.10655 3.73448 9.26018 3.57907 9.45303 3.49242C9.64587 3.40576 9.86409 3.39409 10.0651 3.45967C10.2661 3.52525 10.4354 3.66338 10.54 3.84709Z" fill="#555555"/>
</svg>
