<svg width="34" height="34" viewBox="0 0 34 34" fill="none" xmlns="http://www.w3.org/2000/svg">
<path d="M19.1229 12.75C17.3344 12.75 15.6059 13.3945 14.254 14.5653C12.9021 15.7362 12.0174 17.3549 11.7619 19.125H11.6875C10.2785 19.125 8.92728 19.6847 7.93099 20.681C6.9347 21.6773 6.375 23.0285 6.375 24.4375C6.375 25.8465 6.9347 27.1977 7.93099 28.194C8.92728 29.1903 10.2785 29.75 11.6875 29.75H26.5625C27.9715 29.75 29.3227 29.1903 30.319 28.194C31.3153 27.1977 31.875 25.8465 31.875 24.4375C31.875 23.0285 31.3153 21.6773 30.319 20.681C29.3227 19.6847 27.9715 19.125 26.5625 19.125H26.4839C26.2284 17.3553 25.344 15.7368 23.9925 14.566C22.6411 13.3953 20.9131 12.7506 19.125 12.75H19.1229ZM18.6724 5.99249C18.7379 5.86929 18.7786 5.73438 18.7921 5.59545C18.8055 5.45653 18.7914 5.31632 18.7507 5.18283C18.7099 5.04934 18.6433 4.92519 18.5546 4.81745C18.4658 4.70971 18.3568 4.62051 18.2336 4.55493C18.1104 4.48935 17.9754 4.44868 17.8365 4.43524C17.6976 4.42181 17.5574 4.43586 17.4239 4.47661C17.2904 4.51736 17.1662 4.584 17.0585 4.67273C16.9508 4.76146 16.8616 4.87054 16.796 4.99374L15.8907 6.70012C15.7583 6.94894 15.7301 7.24019 15.8124 7.50978C15.8947 7.77938 16.0807 8.00524 16.3296 8.13768C16.5784 8.27012 16.8696 8.2983 17.1392 8.216C17.4088 8.13371 17.6347 7.94769 17.7671 7.69887L18.6724 5.99249ZM10.6569 4.40512C10.616 4.27159 10.5492 4.14742 10.4603 4.0397C10.3715 3.93198 10.2622 3.84282 10.1389 3.77731C10.0156 3.71179 9.88057 3.67122 9.74156 3.65789C9.60255 3.64456 9.46227 3.65874 9.32874 3.69962C9.19522 3.7405 9.07105 3.80728 8.96333 3.89615C8.8556 3.98502 8.76644 4.09424 8.70093 4.21757C8.63542 4.3409 8.59484 4.47592 8.58151 4.61493C8.56818 4.75394 8.58236 4.89421 8.62325 5.02774L9.19062 6.87649C9.27631 7.14211 9.46306 7.36334 9.71053 7.49239C9.958 7.62144 10.2463 7.64793 10.5132 7.56615C10.78 7.48436 11.0039 7.30087 11.1366 7.05532C11.2693 6.80977 11.3 6.52188 11.2221 6.25387L10.6569 4.40512ZM6.375 14.875C6.375 16.1585 6.75537 17.3527 7.40775 18.3536C8.18762 17.8032 9.08012 17.3974 10.0427 17.1827C10.5942 15.5202 11.5911 14.0408 12.9249 12.9056C14.2588 11.7703 15.8785 11.0227 17.6077 10.744C16.7626 9.74951 15.6326 9.03838 14.3703 8.70666C13.1081 8.37494 11.7745 8.43862 10.5496 8.88909C9.3247 9.33956 8.26758 10.1551 7.52102 11.2256C6.77446 12.2961 6.37444 13.5699 6.375 14.875ZM3.8675 8.95475C3.74429 8.88917 3.60938 8.8485 3.47045 8.83506C3.33153 8.82162 3.19132 8.83567 3.05783 8.87642C2.92434 8.91717 2.80019 8.98381 2.69245 9.07254C2.58472 9.16127 2.49551 9.27035 2.42993 9.39356C2.36435 9.51676 2.32368 9.65168 2.31025 9.7906C2.29681 9.92952 2.31086 10.0697 2.35161 10.2032C2.39236 10.3367 2.459 10.4609 2.54773 10.5686C2.63646 10.6763 2.74554 10.7655 2.86875 10.8311L4.57512 11.7364C4.82394 11.8688 5.11519 11.897 5.38478 11.8147C5.65438 11.7324 5.88024 11.5464 6.01268 11.2976C6.14513 11.0487 6.1733 10.7575 6.09101 10.4879C6.00871 10.2183 5.82269 9.99244 5.57387 9.85999L3.86537 8.95475H3.8675ZM4.7515 18.4386C5.01711 18.3529 5.23834 18.1662 5.36739 17.9187C5.49644 17.6712 5.52293 17.3829 5.44115 17.1161C5.35936 16.8492 5.17587 16.6253 4.93032 16.4926C4.68477 16.36 4.39688 16.3293 4.12887 16.4071L2.28012 16.9724C2.14487 17.0117 2.01879 17.0774 1.90919 17.1659C1.7996 17.2544 1.70868 17.3637 1.64174 17.4877C1.57479 17.6116 1.53315 17.7476 1.51924 17.8877C1.50532 18.0279 1.51941 18.1694 1.56068 18.304C1.60195 18.4387 1.66958 18.5638 1.75964 18.6721C1.8497 18.7804 1.96038 18.8697 2.08527 18.9348C2.21015 18.9999 2.34673 19.0396 2.48707 19.0514C2.62741 19.0633 2.76871 19.0471 2.90275 19.0039L4.7515 18.4386Z" fill="#555555"/>
</svg>
