<svg width="34" height="34" viewBox="0 0 34 34" fill="none" xmlns="http://www.w3.org/2000/svg">
<path d="M17 2.125C17.2818 2.125 17.552 2.23694 17.7513 2.4362C17.9506 2.63546 18.0625 2.90571 18.0625 3.1875V5.3125C18.0625 5.59429 17.9506 5.86454 17.7513 6.0638C17.552 6.26306 17.2818 6.375 17 6.375C16.7182 6.375 16.448 6.26306 16.2487 6.0638C16.0494 5.86454 15.9375 5.59429 15.9375 5.3125V3.1875C15.9375 2.90571 16.0494 2.63546 16.2487 2.4362C16.448 2.23694 16.7182 2.125 17 2.125ZM17 23.375C18.6908 23.375 20.3123 22.7034 21.5078 21.5078C22.7034 20.3123 23.375 18.6908 23.375 17C23.375 15.3092 22.7034 13.6877 21.5078 12.4922C20.3123 11.2966 18.6908 10.625 17 10.625C15.3092 10.625 13.6877 11.2966 12.4922 12.4922C11.2966 13.6877 10.625 15.3092 10.625 17C10.625 18.6908 11.2966 20.3123 12.4922 21.5078C13.6877 22.7034 15.3092 23.375 17 23.375ZM30.8125 18.0625C31.0943 18.0625 31.3645 17.9506 31.5638 17.7513C31.7631 17.552 31.875 17.2818 31.875 17C31.875 16.7182 31.7631 16.448 31.5638 16.2487C31.3645 16.0494 31.0943 15.9375 30.8125 15.9375H28.6875C28.4057 15.9375 28.1355 16.0494 27.9362 16.2487C27.7369 16.448 27.625 16.7182 27.625 17C27.625 17.2818 27.7369 17.552 27.9362 17.7513C28.1355 17.9506 28.4057 18.0625 28.6875 18.0625H30.8125ZM17 27.625C17.2818 27.625 17.552 27.7369 17.7513 27.9362C17.9506 28.1355 18.0625 28.4057 18.0625 28.6875V30.8125C18.0625 31.0943 17.9506 31.3645 17.7513 31.5638C17.552 31.7631 17.2818 31.875 17 31.875C16.7182 31.875 16.448 31.7631 16.2487 31.5638C16.0494 31.3645 15.9375 31.0943 15.9375 30.8125V28.6875C15.9375 28.4057 16.0494 28.1355 16.2487 27.9362C16.448 27.7369 16.7182 27.625 17 27.625ZM5.3125 18.0625C5.59429 18.0625 5.86454 17.9506 6.0638 17.7513C6.26306 17.552 6.375 17.2818 6.375 17C6.375 16.7182 6.26306 16.448 6.0638 16.2487C5.86454 16.0494 5.59429 15.9375 5.3125 15.9375H3.1875C2.90571 15.9375 2.63546 16.0494 2.4362 16.2487C2.23694 16.448 2.125 16.7182 2.125 17C2.125 17.2818 2.23694 17.552 2.4362 17.7513C2.63546 17.9506 2.90571 18.0625 3.1875 18.0625H5.3125ZM6.68525 6.68525C6.78395 6.5863 6.9012 6.5078 7.03028 6.45424C7.15936 6.40067 7.29774 6.3731 7.4375 6.3731C7.57726 6.3731 7.71564 6.40067 7.84472 6.45424C7.9738 6.5078 8.09105 6.5863 8.18975 6.68525L10.3148 8.81025C10.4135 8.90904 10.4919 9.02631 10.5454 9.15539C10.5988 9.28446 10.6263 9.42279 10.6263 9.5625C10.6263 9.70221 10.5988 9.84054 10.5454 9.96961C10.4919 10.0987 10.4135 10.216 10.3148 10.3148C10.216 10.4135 10.0987 10.4919 9.96961 10.5454C9.84054 10.5988 9.70221 10.6263 9.5625 10.6263C9.42279 10.6263 9.28446 10.5988 9.15539 10.5454C9.02631 10.4919 8.90904 10.4135 8.81025 10.3148L6.68525 8.18975C6.5863 8.09105 6.5078 7.9738 6.45424 7.84472C6.40067 7.71564 6.3731 7.57726 6.3731 7.4375C6.3731 7.29774 6.40067 7.15936 6.45424 7.03028C6.5078 6.9012 6.5863 6.78395 6.68525 6.68525ZM8.18975 27.3148C8.0911 27.4135 7.97396 27.4919 7.84502 27.5454C7.71608 27.599 7.57786 27.6266 7.43825 27.6267C7.29864 27.6268 7.16038 27.5994 7.03137 27.546C6.90235 27.4927 6.7851 27.4145 6.68631 27.3158C6.58753 27.2172 6.50914 27.1 6.45562 26.9711C6.4021 26.8421 6.37451 26.7039 6.37441 26.5643C6.37431 26.4247 6.40171 26.2864 6.45504 26.1574C6.50838 26.0284 6.5866 25.9112 6.68525 25.8124L8.81025 23.6874C8.9089 23.5886 9.02604 23.5102 9.15498 23.4567C9.28392 23.4032 9.42214 23.3756 9.56175 23.3755C9.70136 23.3754 9.83962 23.4028 9.96863 23.4561C10.0977 23.5094 10.2149 23.5877 10.3137 23.6863C10.4125 23.785 10.4909 23.9021 10.5444 24.031C10.5979 24.16 10.6255 24.2982 10.6256 24.4378C10.6257 24.5774 10.5983 24.7157 10.545 24.8447C10.4916 24.9737 10.4134 25.091 10.3148 25.1898L8.18975 27.3148ZM27.3148 6.68525C27.2161 6.5863 27.0988 6.5078 26.9697 6.45424C26.8406 6.40067 26.7023 6.3731 26.5625 6.3731C26.4227 6.3731 26.2844 6.40067 26.1553 6.45424C26.0262 6.5078 25.9089 6.5863 25.8102 6.68525L23.6852 8.81025C23.4857 9.00976 23.3737 9.28035 23.3737 9.5625C23.3737 9.84465 23.4857 10.1152 23.6852 10.3148C23.8848 10.5143 24.1554 10.6263 24.4375 10.6263C24.7196 10.6263 24.9902 10.5143 25.1898 10.3148L27.3148 8.18975C27.4137 8.09105 27.4922 7.9738 27.5458 7.84472C27.5993 7.71564 27.6269 7.57726 27.6269 7.4375C27.6269 7.29774 27.5993 7.15936 27.5458 7.03028C27.4922 6.9012 27.4137 6.78395 27.3148 6.68525ZM25.8102 27.3148C26.0095 27.5143 26.2798 27.6265 26.5617 27.6267C26.8437 27.6269 27.1142 27.515 27.3137 27.3158C27.5132 27.1166 27.6254 26.8463 27.6256 26.5643C27.6258 26.2824 27.514 26.0119 27.3148 25.8124L25.1898 23.6874C24.9905 23.4879 24.7202 23.3757 24.4383 23.3755C24.1563 23.3753 23.8858 23.4871 23.6863 23.6863C23.4868 23.8855 23.3746 24.1559 23.3744 24.4378C23.3742 24.7198 23.486 24.9902 23.6852 25.1898L25.8102 27.3148Z" fill="#555555"/>
</svg>
