<svg width="34" height="34" viewBox="0 0 34 34" fill="none" xmlns="http://www.w3.org/2000/svg">
<path d="M18.4194 11.3517C22.9074 11.3517 25.4546 14.3225 25.8244 17.9109H25.9377C26.6237 17.91 27.3033 18.0442 27.9374 18.3059C28.5716 18.5677 29.148 18.9517 29.6337 19.4363C30.1194 19.9208 30.5049 20.4962 30.7681 21.1298C31.0314 21.7633 31.1673 22.4425 31.168 23.1285C31.1671 23.8144 31.0311 24.4935 30.7677 25.1268C30.5044 25.7602 30.1189 26.3355 29.6332 26.8198C29.1475 27.3042 28.5712 27.6881 27.9371 27.9498C27.303 28.2114 26.6236 28.3456 25.9377 28.3447H10.8998C10.2139 28.3456 9.53446 28.2114 8.90039 27.9498C8.26632 27.6881 7.68999 27.3042 7.20431 26.8198C6.71863 26.3355 6.33311 25.7602 6.06975 25.1268C5.8064 24.4935 5.67038 23.8144 5.66945 23.1285C5.67019 22.4425 5.80608 21.7633 6.06935 21.1298C6.33262 20.4962 6.71811 19.9208 7.20381 19.4363C7.68951 18.9517 8.2659 18.5677 8.90006 18.3059C9.53423 18.0442 10.2137 17.91 10.8998 17.9109H11.0131C11.3857 14.2984 13.9314 11.3517 18.4194 11.3517ZM9.33437 5.67375C10.4634 5.73464 11.5619 6.06183 12.5403 6.62858C13.9768 7.45527 15.0823 8.75448 15.6683 10.3048C12.8576 11.101 10.8459 13.1396 10.0101 15.895L9.91237 16.2435L9.8302 16.5807L9.53836 16.6345C7.94254 16.9726 6.52787 17.8883 5.56603 19.2057C4.54773 18.6662 3.67449 17.8892 3.02028 16.9405C2.92786 16.8063 2.86753 16.6527 2.84395 16.4915C2.82037 16.3303 2.83418 16.1659 2.88429 16.0109C2.93441 15.8559 3.0195 15.7145 3.13299 15.5976C3.24647 15.4807 3.38532 15.3915 3.53878 15.3368C5.86636 14.5038 7.1187 13.566 7.83695 12.1975C8.61895 10.7029 8.76345 9.11767 8.24353 6.98842C8.20385 6.8271 8.20254 6.65874 8.23972 6.49683C8.27689 6.33492 8.35152 6.18399 8.45759 6.05614C8.56367 5.9283 8.69825 5.82711 8.85051 5.7607C9.00278 5.69429 9.1685 5.66451 9.33437 5.67375Z" fill="#555555"/>
</svg>
