<svg width="28" height="28" viewBox="0 0 28 28" fill="none" xmlns="http://www.w3.org/2000/svg">
<path fill-rule="evenodd" clip-rule="evenodd" d="M27 6.30649C27 9.23663 24.6236 11.613 21.6935 11.613C18.7634 11.613 16.3883 9.23663 16.3883 6.30649C16.3883 3.37635 18.7634 1 21.6935 1C24.6236 1 27 3.37635 27 6.30649Z" stroke="#555555" stroke-width="1.3" stroke-linecap="round" stroke-linejoin="round"/>
<path fill-rule="evenodd" clip-rule="evenodd" d="M11.6117 6.30649C11.6117 9.23663 9.23664 11.613 6.30519 11.613C3.37635 11.613 1 9.23663 1 6.30649C1 3.37635 3.37635 1 6.30519 1C9.23664 1 11.6117 3.37635 11.6117 6.30649Z" stroke="#555555" stroke-width="1.3" stroke-linecap="round" stroke-linejoin="round"/>
<path fill-rule="evenodd" clip-rule="evenodd" d="M27 21.6003C27 24.5304 24.6236 26.9054 21.6935 26.9054C18.7634 26.9054 16.3883 24.5304 16.3883 21.6003C16.3883 18.6701 18.7634 16.2938 21.6935 16.2938C24.6236 16.2938 27 18.6701 27 21.6003Z" stroke="#555555" stroke-width="1.3" stroke-linecap="round" stroke-linejoin="round"/>
<path fill-rule="evenodd" clip-rule="evenodd" d="M11.6117 21.6003C11.6117 24.5304 9.23664 26.9054 6.30519 26.9054C3.37635 26.9054 1 24.5304 1 21.6003C1 18.6701 3.37635 16.2938 6.30519 16.2938C9.23664 16.2938 11.6117 18.6701 11.6117 21.6003Z" stroke="#555555" stroke-width="1.3" stroke-linecap="round" stroke-linejoin="round"/>
</svg>
