<svg width="28" height="25" viewBox="0 0 28 25" fill="none" xmlns="http://www.w3.org/2000/svg">
<path d="M11.5332 19.7133H1.00067" stroke="#555555" stroke-width="1.5" stroke-linecap="round" stroke-linejoin="round"/>
<path fill-rule="evenodd" clip-rule="evenodd" d="M18.1418 19.7148C18.1418 23.0373 19.2498 24.1438 22.5709 24.1438C25.892 24.1438 27 23.0373 27 19.7148C27 16.3922 25.892 15.2857 22.5709 15.2857C19.2498 15.2857 18.1418 16.3922 18.1418 19.7148Z" stroke="#555555" stroke-width="1.5" stroke-linecap="round" stroke-linejoin="round"/>
<path d="M16.4684 5.43121H26.9994" stroke="#555555" stroke-width="1.5" stroke-linecap="round" stroke-linejoin="round"/>
<path fill-rule="evenodd" clip-rule="evenodd" d="M9.85959 5.42907C9.85959 2.10799 8.7516 1 5.43052 1C2.10799 1 1 2.10799 1 5.42907C1 8.7516 2.10799 9.85814 5.43052 9.85814C8.7516 9.85814 9.85959 8.7516 9.85959 5.42907Z" stroke="#555555" stroke-width="1.5" stroke-linecap="round" stroke-linejoin="round"/>
</svg>
