<svg width="231" height="282" viewBox="0 0 231 282" fill="none" xmlns="http://www.w3.org/2000/svg">
<g clip-path="url(#clip0_319_319)">
<rect width="231" height="282" rx="40" fill="url(#paint0_linear_319_319)"/>
<path fill-rule="evenodd" clip-rule="evenodd" d="M-53 292.662C-53 292.662 -50.5087 208.805 5.96964 195.694C55.3498 187.896 93.4208 248.418 137.576 248.418C189.037 248.418 213.29 213.294 263.253 213.294C299.695 213.294 335.278 243.831 384.903 233.246C401.409 229.725 426 223.666 426 223.666L425.182 339.205L-53 347V292.662Z" fill="url(#paint1_linear_319_319)" fill-opacity="0.7"/>
<path d="M108.801 192.31C144.523 154.479 178.646 155.766 182.547 156.468C176.743 149.717 168.352 145.338 159.533 143.805C150.713 142.273 141.511 143.497 133.162 146.702C121.139 151.318 110.478 160.561 106.502 172.708C104.365 179.234 104.433 186.984 108.801 192.31Z" fill="#236002"/>
<path d="M116.947 174.168C142.647 152.807 157.091 149.093 182.547 156.468C176.743 149.717 168.351 145.338 159.532 143.805C150.713 142.273 141.51 143.497 133.162 146.702C121.139 151.318 110.477 160.561 106.501 172.708C104.365 179.234 110.986 179.123 116.947 174.168Z" fill="#358013"/>
<path d="M154.856 162.649C153.476 166.676 152.713 171.024 152.813 175.277C153.631 210.023 157.466 245.866 168.909 280.787H193.858C179.226 245.495 172.285 202.588 168.503 156.233C168.621 154.007 165.5 153.128 163.345 153.741C159.231 154.912 156.236 158.622 154.856 162.649Z" fill="#563913"/>
<mask id="mask0_319_319" style="mask-type:alpha" maskUnits="userSpaceOnUse" x="152" y="153" width="42" height="128">
<path d="M154.856 162.649C153.476 166.676 152.713 171.024 152.813 175.277C153.631 210.023 157.466 245.866 168.909 280.787H193.858C179.226 245.495 172.285 202.588 168.503 156.233C168.621 154.007 165.5 153.128 163.345 153.741C159.231 154.912 156.236 158.622 154.856 162.649Z" fill="#868162"/>
</mask>
<g mask="url(#mask0_319_319)">
<path d="M165.157 186.985C165.157 185.344 166.488 184.013 168.129 184.013H180.193C181.835 184.013 183.165 185.344 183.165 186.985V186.985C183.165 188.626 181.835 189.957 180.193 189.957H168.129C166.488 189.957 165.157 188.626 165.157 186.985V186.985Z" fill="black"/>
<path d="M142.271 207.046C142.271 205.404 143.602 204.074 145.243 204.074H157.308C158.949 204.074 160.28 205.404 160.28 207.046V207.046C160.28 208.687 158.949 210.018 157.308 210.018H145.243C143.602 210.018 142.271 208.687 142.271 207.046V207.046Z" fill="black"/>
<path d="M174.161 235.65C174.161 234.009 175.492 232.679 177.133 232.679H189.197C190.839 232.679 192.169 234.009 192.169 235.65V235.65C192.169 237.292 190.839 238.622 189.197 238.622H177.133C175.492 238.622 174.161 237.292 174.161 235.65V235.65Z" fill="black"/>
<path d="M151.276 255.711C151.276 254.07 152.606 252.739 154.248 252.739H166.312C167.953 252.739 169.284 254.07 169.284 255.711V255.711C169.284 257.352 167.953 258.683 166.312 258.683H154.248C152.606 258.683 151.276 257.352 151.276 255.711V255.711Z" fill="black"/>
</g>
<path opacity="0.4" d="M154.856 162.649C153.476 166.675 152.713 171.024 152.813 175.276C153.631 210.023 157.466 245.866 168.909 280.786H183.165C183.165 280.786 159.154 222.834 157.786 157.451C157.745 155.468 155.499 160.773 154.856 162.649Z" fill="#92672D"/>
<path d="M166.418 155.487C166.135 156.526 165.508 157.756 164.422 157.716C163.498 156.549 162.554 155.409 161.593 154.296C153.294 144.691 143.63 137.112 132.892 131.453C122.655 126.057 111.441 122.405 99.5021 120.406C98.3076 120.206 97.1059 120.023 95.8972 119.856C94.4846 119.822 94.9366 117.579 95.9045 116.56C103.642 108.411 115.657 104.868 126.858 106.316C138.058 107.765 148.359 113.847 155.966 122.116C164.231 131.1 169.614 143.753 166.418 155.487Z" fill="#358013"/>
<path d="M164.422 157.716C165.508 157.756 166.135 156.526 166.418 155.487C169.614 143.753 164.231 131.1 155.966 122.116C148.359 113.847 138.058 107.765 126.858 106.316C115.657 104.868 103.642 108.411 95.9045 116.56C94.9996 117.513 94.5456 119.536 95.6448 119.822C101.882 116.493 109.006 114.544 116.572 114.544C139.188 114.544 156.586 131.952 159.192 151.614C160.004 152.49 160.805 153.384 161.593 154.296C162.554 155.409 163.498 156.549 164.422 157.716Z" fill="#236002"/>
<path d="M164.451 143.793C164.229 148.066 164.783 152.596 167.342 156.043C183.54 125.317 220.12 124.017 220.12 124.017C232.125 124.946 216.18 106.929 203.987 106.371C200.047 105.909 196.079 106.369 192.311 107.604C176.859 112.669 165.29 127.697 164.451 143.793Z" fill="#358013"/>
<path d="M164.451 143.793C164.229 148.066 164.783 152.597 167.342 156.044C169.538 152.906 170.808 149.865 173.411 147.05C174.536 132.004 191.503 105.566 218.431 113.616C218.666 113.697 218.898 113.778 219.129 113.859C215.333 109.657 209.622 106.8 204.029 106.145C200.088 105.683 196.079 106.37 192.311 107.605C176.859 112.67 165.29 127.697 164.451 143.793Z" fill="#236002"/>
<path d="M179.226 163.581C175.292 160.659 169.211 158.207 164.566 156.608C162.558 155.917 161.701 153.337 162.392 151.346C163.083 149.356 164.919 147.949 166.868 147.108C169.899 145.799 173.307 145.604 176.606 145.83C189.291 146.701 201.633 153.742 208.087 164.59C214.117 174.726 218.831 208.115 210.365 196.644C206.801 191.814 197.609 177.233 179.226 163.581Z" fill="#236002"/>
<path d="M162.718 151.879C179.976 153.551 191.794 165.253 200.048 173.983C208.302 182.713 209.156 162.92 198.735 154.665C180.914 140.549 161.593 146.121 162.718 151.879Z" fill="#358013"/>
<path d="M165.908 165.067C165.908 172.658 160.818 175.469 153.152 175.469C145.485 175.469 140.396 172.658 140.396 165.067C140.396 157.476 146.586 149.464 153.152 149.464C159.717 149.464 165.908 157.476 165.908 165.067Z" fill="#264510"/>
<path d="M175.287 156.151C175.287 163.743 170.198 166.553 162.531 166.553C154.865 166.553 149.775 163.743 149.775 156.151C149.775 148.56 155.966 140.549 162.531 140.549C169.097 140.549 175.287 148.56 175.287 156.151Z" fill="#469B1A"/>
<path d="M185.041 169.153C185.041 176.744 179.952 179.555 172.286 179.555C164.619 179.555 159.53 176.744 159.53 169.153C159.53 161.562 165.72 153.55 172.286 153.55C178.851 153.55 185.041 161.562 185.041 169.153Z" fill="#173208"/>
<path opacity="0.9" d="M47.089 92H70.7833C78.0827 92 84 87.2808 84 81.4595C84 75.6381 78.0827 70.9189 70.7833 70.9189C68.5806 70.9189 66.5038 71.3487 64.6774 72.1088C62.1343 66.2261 55.1318 62 46.8917 62C36.5041 62 28.0833 68.7157 28.0833 77C28.0833 77.1698 28.0869 77.3389 28.0939 77.5073C25.0616 78.8065 23 81.3599 23 84.2973C23 88.5514 27.3242 92 32.6583 92H46.8917C46.9214 92 47.089 92 47.089 92H46.8917H47.089Z" fill="url(#paint2_linear_319_319)"/>
<path opacity="0.9" d="M177.747 69.7291H159.793C154.262 69.7291 144 72.602 144 59.6351C144 50.6805 154.262 49.5411 159.793 49.5411C161.462 49.5411 163.035 49.9526 164.419 50.6805C166.346 45.047 171.652 41 177.896 41C185.767 41 192.148 47.4312 192.148 55.3646C192.148 55.5272 192.145 55.6891 192.14 55.8504C194.438 57.0946 196 59.5398 196 62.3527C196 66.4266 192.723 69.7291 188.681 69.7291H177.896C177.874 69.7291 177.747 69.7291 177.747 69.7291Z" fill="url(#paint3_linear_319_319)"/>
</g>
<defs>
<linearGradient id="paint0_linear_319_319" x1="96.558" y1="-9.87" x2="137.695" y2="197.606" gradientUnits="userSpaceOnUse">
<stop stop-color="#C0CBCD"/>
<stop offset="1" stop-color="#83A69D"/>
</linearGradient>
<linearGradient id="paint1_linear_319_319" x1="186.5" y1="195" x2="186.5" y2="347" gradientUnits="userSpaceOnUse">
<stop stop-color="#5DB0BE"/>
<stop offset="1" stop-color="#B2F5FB"/>
</linearGradient>
<linearGradient id="paint2_linear_319_319" x1="36.3438" y1="48.5" x2="38.3733" y2="108.29" gradientUnits="userSpaceOnUse">
<stop stop-color="#5C6A77"/>
<stop offset="1" stop-color="#818B97" stop-opacity="0"/>
</linearGradient>
<linearGradient id="paint3_linear_319_319" x1="184.625" y1="27.95" x2="182.401" y2="85.728" gradientUnits="userSpaceOnUse">
<stop stop-color="#5C6A77"/>
<stop offset="1" stop-color="#818B97" stop-opacity="0"/>
</linearGradient>
<clipPath id="clip0_319_319">
<rect width="231" height="282" rx="40" fill="white"/>
</clipPath>
</defs>
</svg>
