<svg width="247" height="298" viewBox="0 0 247 298" fill="none" xmlns="http://www.w3.org/2000/svg">
<g filter="url(#filter0_d_319_344)">
<g clip-path="url(#clip0_319_344)">
<rect x="8" y="8" width="231" height="282" rx="40" fill="url(#paint0_linear_319_344)"/>
<path fill-rule="evenodd" clip-rule="evenodd" d="M116.246 128.857L285.641 242.728V340.257H-38.75L-37.2168 247.433L116.246 128.857Z" fill="#374C70"/>
<path fill-rule="evenodd" clip-rule="evenodd" d="M113.916 137.962L123.445 140.808L123.195 133.228L175.224 168.199L166.275 168.653L162.514 172.035L141.355 157.451L157.619 176.436L153.373 180.253L155.989 188.933L137.109 199.344L117.928 176.144L130.268 178.89L122.454 164.105L141.355 174.833L125.363 157.451L132.563 160.414L113.916 137.962Z" fill="url(#paint1_linear_319_344)"/>
<path fill-rule="evenodd" clip-rule="evenodd" d="M177.338 176.02L183.712 174.002L240.357 212.23L232.035 223.581L223.248 219.948L228.788 227.727L215.087 245.167L195.259 234.557L206.569 259.406L170.892 228.576L169.943 208.983L160.998 194.077L169.348 196.692L166.493 182.524L179.162 180.883L177.338 176.02Z" fill="url(#paint2_linear_319_344)"/>
<path fill-rule="evenodd" clip-rule="evenodd" d="M102.222 198.193L120.164 209.848V201.998L157.214 241.766L151.351 225.856L172.997 234.557L194.215 265.733L177.786 268.583L144.545 249.283L161.321 271.439L141.517 274.875L102.222 231.799V218.104L113.916 225.856L102.222 198.193Z" fill="url(#paint3_linear_319_344)"/>
<path fill-rule="evenodd" clip-rule="evenodd" d="M43.5864 201.93L41.9482 191.354L60.4474 199.344L78.9466 217.741L60.4767 215.376L43.5864 201.93Z" fill="url(#paint4_linear_319_344)"/>
<path fill-rule="evenodd" clip-rule="evenodd" d="M52.4131 231.3L46.4595 219.363L61.4394 223.655L59.0302 228.495L52.4131 231.3Z" fill="url(#paint5_linear_319_344)"/>
<path fill-rule="evenodd" clip-rule="evenodd" d="M90.9535 187.794L85.7554 174.732L99.9798 180.149H90.9535V187.794Z" fill="url(#paint6_linear_319_344)"/>
<path fill-rule="evenodd" clip-rule="evenodd" d="M59.5376 183.095H65.4057L62.6966 176.144L70.6267 180.379L78.9468 188.686L68.2483 192.548L59.5376 183.095Z" fill="url(#paint7_linear_319_344)"/>
<path opacity="0.4" fill-rule="evenodd" clip-rule="evenodd" d="M66.3935 79.9279C66.0713 79.5346 66.0713 78.8969 66.3935 78.5036C66.7157 78.1103 67.238 78.1103 67.5602 78.5036L73.3938 85.6252C73.716 86.0185 73.716 86.6562 73.3938 87.0495C73.0717 87.4428 72.5493 87.4428 72.2271 87.0495L66.3935 79.9279ZM95.5617 115.536C95.2395 115.142 95.2395 114.505 95.5617 114.111C95.8838 113.718 96.4062 113.718 96.7284 114.111L102.562 121.233C102.884 121.626 102.884 122.264 102.562 122.657C102.24 123.051 101.717 123.051 101.395 122.657L95.5617 115.536ZM153.898 185.327C153.576 185.721 153.576 186.358 153.898 186.752L159.732 193.873C160.054 194.266 160.576 194.266 160.898 193.873C161.22 193.48 161.22 192.842 160.898 192.449L155.065 185.327C154.743 184.934 154.22 184.934 153.898 185.327ZM183.066 222.359C182.744 221.966 182.744 221.328 183.066 220.935C183.388 220.542 183.911 220.542 184.233 220.935L190.066 228.057C190.389 228.45 190.389 229.088 190.066 229.481C189.744 229.874 189.222 229.874 188.9 229.481L183.066 222.359ZM212.234 256.543C211.912 256.936 211.912 257.574 212.234 257.967L218.068 265.089C218.39 265.482 218.912 265.482 219.235 265.089C219.557 264.696 219.557 264.058 219.235 263.665L213.401 256.543C213.079 256.15 212.556 256.15 212.234 256.543Z" fill="white"/>
<path opacity="0.4" fill-rule="evenodd" clip-rule="evenodd" d="M71.3076 8.71216C70.9854 8.31885 70.9854 7.68116 71.3076 7.28784C71.6297 6.89453 72.1521 6.89453 72.4743 7.28784L78.3079 14.4094C78.6301 14.8027 78.6301 15.4404 78.3079 15.8337C77.9857 16.227 77.4634 16.227 77.1412 15.8337L71.3076 8.71216ZM133.533 84.6756C133.211 84.2823 133.211 83.6446 133.533 83.2513C133.855 82.858 134.377 82.858 134.7 83.2513L140.533 90.3729C140.855 90.7662 140.855 91.4039 140.533 91.7972C140.211 92.1905 139.689 92.1905 139.367 91.7972L133.533 84.6756ZM164.646 121.233C164.323 121.626 164.323 122.264 164.646 122.657L170.479 129.779C170.801 130.172 171.324 130.172 171.646 129.779C171.968 129.386 171.968 128.748 171.646 128.355L165.812 121.233C165.49 120.84 164.968 120.84 164.646 121.233ZM195.758 160.639C195.436 160.246 195.436 159.608 195.758 159.215C196.081 158.821 196.603 158.821 196.925 159.215L202.759 166.336C203.081 166.73 203.081 167.367 202.759 167.761C202.437 168.154 201.914 168.154 201.592 167.761L195.758 160.639ZM226.871 197.197C226.549 197.59 226.549 198.228 226.871 198.621L232.705 205.742C233.027 206.136 233.549 206.136 233.871 205.742C234.194 205.349 234.194 204.711 233.871 204.318L228.038 197.197C227.716 196.803 227.193 196.803 226.871 197.197ZM257.984 236.603C257.662 236.209 257.662 235.572 257.984 235.178C258.306 234.785 258.828 234.785 259.15 235.178L264.984 242.3C265.306 242.693 265.306 243.331 264.984 243.724C264.662 244.117 264.14 244.117 263.817 243.724L257.984 236.603ZM289.096 273.16C288.774 273.553 288.774 274.191 289.096 274.584L294.93 281.706C295.252 282.099 295.775 282.099 296.097 281.706C296.419 281.313 296.419 280.675 296.097 280.282L290.263 273.16C289.941 272.767 289.419 272.767 289.096 273.16Z" fill="white"/>
<path opacity="0.4" fill-rule="evenodd" clip-rule="evenodd" d="M157.42 36.6225C157.098 36.2292 157.098 35.5915 157.42 35.1982C157.742 34.8048 158.264 34.8048 158.587 35.1982L164.42 42.3197C164.742 42.713 164.742 43.3507 164.42 43.744C164.098 44.1374 163.576 44.1374 163.253 43.744L157.42 36.6225ZM188.533 74.6042C188.21 74.2109 188.21 73.5732 188.533 73.1799C188.855 72.7866 189.377 72.7866 189.699 73.1799L195.533 80.3015C195.855 80.6948 195.855 81.3325 195.533 81.7258C195.211 82.1191 194.688 82.1191 194.366 81.7258L188.533 74.6042ZM219.645 111.162C219.323 111.555 219.323 112.193 219.645 112.586L225.479 119.708C225.801 120.101 226.323 120.101 226.646 119.708C226.968 119.314 226.968 118.677 226.646 118.283L220.812 111.162C220.49 110.768 219.967 110.768 219.645 111.162Z" fill="white"/>
<path opacity="0.4" fill-rule="evenodd" clip-rule="evenodd" d="M8.05755 75.855C7.73537 75.4617 7.73537 74.824 8.05755 74.4307C8.37974 74.0374 8.9021 74.0374 9.22428 74.4307L15.0579 81.5523C15.3801 81.9456 15.3801 82.5833 15.0579 82.9766C14.7357 83.3699 14.2134 83.3699 13.8912 82.9766L8.05755 75.855ZM39.1703 113.837C38.8481 113.443 38.8481 112.806 39.1703 112.412C39.4924 112.019 40.0148 112.019 40.337 112.412L46.1706 119.534C46.4928 119.927 46.4928 120.565 46.1706 120.958C45.8484 121.352 45.3261 121.352 45.0039 120.958L39.1703 113.837ZM70.283 150.394C69.9608 150.787 69.9608 151.425 70.283 151.818L76.1166 158.94C76.4388 159.333 76.9611 159.333 77.2833 158.94C77.6055 158.547 77.6055 157.909 77.2833 157.516L71.4497 150.394C71.1275 150.001 70.6051 150.001 70.283 150.394ZM101.396 189.8C101.073 189.407 101.073 188.769 101.396 188.376C101.718 187.983 102.24 187.983 102.562 188.376L108.396 195.497C108.718 195.891 108.718 196.528 108.396 196.922C108.074 197.315 107.551 197.315 107.229 196.922L101.396 189.8ZM132.508 226.358C132.186 226.751 132.186 227.389 132.508 227.782L138.342 234.904C138.664 235.297 139.187 235.297 139.509 234.904C139.831 234.51 139.831 233.873 139.509 233.479L133.675 226.358C133.353 225.964 132.831 225.964 132.508 226.358ZM194.734 303.745C194.412 303.352 194.412 302.714 194.734 302.321C195.056 301.928 195.578 301.928 195.9 302.321L201.734 309.443C202.056 309.836 202.056 310.474 201.734 310.867C201.412 311.26 200.89 311.26 200.567 310.867L194.734 303.745ZM225.846 340.303C225.524 340.696 225.524 341.334 225.846 341.727L231.68 348.849C232.002 349.242 232.525 349.242 232.847 348.849C233.169 348.455 233.169 347.818 232.847 347.424L227.013 340.303C226.691 339.91 226.169 339.91 225.846 340.303Z" fill="white"/>
<path opacity="0.4" fill-rule="evenodd" clip-rule="evenodd" d="M41.1147 176.639C40.7925 176.246 40.7925 175.608 41.1147 175.215C41.4369 174.822 41.9592 174.822 42.2814 175.215L52.0041 187.084C52.3263 187.477 52.3263 188.115 52.0041 188.508C51.6819 188.902 51.1596 188.902 50.8374 188.508L41.1147 176.639ZM74.1719 216.995C73.8497 216.601 73.8497 215.964 74.1719 215.57C74.4941 215.177 75.0165 215.177 75.3386 215.57L85.0614 227.44C85.3836 227.833 85.3836 228.471 85.0614 228.864C84.7392 229.257 84.2168 229.257 83.8946 228.864L74.1719 216.995ZM140.286 296.282C139.964 296.675 139.964 297.313 140.286 297.706L150.009 309.575C150.331 309.969 150.854 309.969 151.176 309.575C151.498 309.182 151.498 308.544 151.176 308.151L141.453 296.282C141.131 295.888 140.609 295.888 140.286 296.282ZM173.344 338.062C173.021 337.668 173.021 337.031 173.344 336.637C173.666 336.244 174.188 336.244 174.51 336.637L184.233 348.507C184.555 348.9 184.555 349.538 184.233 349.931C183.911 350.324 183.389 350.324 183.066 349.931L173.344 338.062ZM206.401 376.993C206.079 377.386 206.079 378.024 206.401 378.417L216.124 390.286C216.446 390.68 216.968 390.68 217.29 390.286C217.613 389.893 217.613 389.255 217.29 388.862L207.568 376.993C207.245 376.6 206.723 376.6 206.401 376.993Z" fill="white"/>
<path opacity="0.4" d="M39.1699 207.837C38.8477 207.443 38.8477 206.806 39.1699 206.412C39.492 206.019 40.0144 206.019 40.3366 206.412L48.1148 215.908C48.4369 216.301 48.4369 216.939 48.1148 217.332C47.7926 217.726 47.2702 217.726 46.948 217.332L39.1699 207.837Z" fill="white"/>
<path opacity="0.4" fill-rule="evenodd" clip-rule="evenodd" d="M118.057 10.645C117.735 11.0383 117.735 11.676 118.057 12.0693L133.613 31.0602C133.936 31.4535 134.458 31.4535 134.78 31.0602C135.102 30.6669 135.102 30.0292 134.78 29.6359L119.224 10.645C118.902 10.2517 118.379 10.2517 118.057 10.645ZM182.227 105.768C181.905 106.161 181.905 106.799 182.227 107.192L197.783 126.183C198.106 126.577 198.628 126.577 198.95 126.183C199.272 125.79 199.272 125.152 198.95 124.759L183.394 105.768C183.072 105.375 182.549 105.375 182.227 105.768Z" fill="white"/>
<path opacity="0.4" fill-rule="evenodd" clip-rule="evenodd" d="M177.004 42.3197C176.682 42.713 176.682 43.3507 177.004 43.7441L178.948 46.1179C179.271 46.5112 179.793 46.5112 180.115 46.1179C180.437 45.7246 180.437 45.0869 180.115 44.6936L178.171 42.3197C177.848 41.9264 177.326 41.9264 177.004 42.3197ZM213.95 87.423C213.628 87.8164 213.628 88.454 213.95 88.8474L215.895 91.2212C216.217 91.6145 216.739 91.6145 217.061 91.2212C217.384 90.8279 217.384 90.1902 217.061 89.7969L215.117 87.423C214.795 87.0297 214.272 87.0297 213.95 87.423Z" fill="white"/>
<path opacity="0.4" fill-rule="evenodd" clip-rule="evenodd" d="M101.81 82.8778C101.488 82.4845 101.488 81.8468 101.81 81.4535C102.132 81.0601 102.655 81.0601 102.977 81.4535L122.422 105.192C122.744 105.585 122.744 106.223 122.422 106.616C122.1 107.01 121.578 107.01 121.255 106.616L101.81 82.8778ZM30.2416 144.005C29.9195 143.612 29.9195 142.974 30.2416 142.581C30.5638 142.187 31.0862 142.187 31.4084 142.581L50.8538 166.319C51.176 166.713 51.176 167.35 50.8538 167.744C50.5316 168.137 50.0093 168.137 49.6871 167.744L30.2416 144.005ZM201.315 202.928C200.993 203.321 200.993 203.959 201.315 204.352L220.761 228.09C221.083 228.484 221.605 228.484 221.928 228.09C222.25 227.697 222.25 227.059 221.928 226.666L202.482 202.928C202.16 202.534 201.638 202.534 201.315 202.928Z" fill="white"/>
<path opacity="0.9" d="M82.1627 82.1836H108.867C117.094 82.1836 123.763 73.9987 123.763 63.9022C123.763 53.8057 117.094 45.6209 108.867 45.6209C106.385 45.6209 104.044 46.3662 101.986 47.6845C99.1195 37.4817 91.2273 30.1521 81.9403 30.1521C70.233 30.1521 60.7424 41.7997 60.7424 56.1678C60.7424 56.4623 60.7463 56.7556 60.7542 57.0477C57.3368 59.3011 55.0132 63.7296 55.0132 68.8241C55.0132 76.2023 59.8868 82.1836 65.8986 82.1836H81.9403C81.9737 82.1836 82.1627 82.1836 82.1627 82.1836H81.9403H82.1627Z" fill="url(#paint8_linear_319_344)"/>
<path opacity="0.6" d="M38.56 76.1635C38.2378 75.7702 38.2378 75.1325 38.56 74.7392C38.8822 74.3459 39.4045 74.3459 39.7267 74.7392L59.1722 98.4778C59.4943 98.8711 59.4943 99.5088 59.1722 99.9021C58.85 100.295 58.3276 100.295 58.0054 99.9021L38.56 76.1635Z" fill="white"/>
<path opacity="0.120554" d="M145.742 127.219C145.419 126.826 145.419 126.188 145.742 125.795C146.064 125.402 146.586 125.402 146.908 125.795L152.742 132.917C153.064 133.31 153.064 133.948 152.742 134.341C152.42 134.734 151.897 134.734 151.575 134.341L145.742 127.219Z" fill="white"/>
<path opacity="0.5" d="M128.895 45.4431C128.573 45.0498 128.573 44.4121 128.895 44.0188C129.218 43.6255 129.74 43.6255 130.062 44.0188L135.896 51.1403C136.218 51.5337 136.218 52.1713 135.896 52.5647C135.574 52.958 135.051 52.958 134.729 52.5647L128.895 45.4431Z" fill="white"/>
</g>
</g>
<defs>
<filter id="filter0_d_319_344" x="0" y="0" width="247" height="298" filterUnits="userSpaceOnUse" color-interpolation-filters="sRGB">
<feFlood flood-opacity="0" result="BackgroundImageFix"/>
<feColorMatrix in="SourceAlpha" type="matrix" values="0 0 0 0 0 0 0 0 0 0 0 0 0 0 0 0 0 0 127 0" result="hardAlpha"/>
<feOffset/>
<feGaussianBlur stdDeviation="4"/>
<feComposite in2="hardAlpha" operator="out"/>
<feColorMatrix type="matrix" values="0 0 0 0 0 0 0 0 0 0 0 0 0 0 0 0 0 0 0.25 0"/>
<feBlend mode="normal" in2="BackgroundImageFix" result="effect1_dropShadow_319_344"/>
<feBlend mode="normal" in="SourceGraphic" in2="effect1_dropShadow_319_344" result="shape"/>
</filter>
<linearGradient id="paint0_linear_319_344" x1="257.594" y1="290" x2="257.594" y2="-16.8378" gradientUnits="userSpaceOnUse">
<stop stop-color="#6E7C84"/>
<stop offset="1" stop-color="#668BA7"/>
</linearGradient>
<linearGradient id="paint1_linear_319_344" x1="93.3147" y1="154.629" x2="136.767" y2="205.872" gradientUnits="userSpaceOnUse">
<stop stop-color="#5B8189"/>
<stop offset="1" stop-color="#A5BABD"/>
</linearGradient>
<linearGradient id="paint2_linear_319_344" x1="134.332" y1="201.646" x2="190.441" y2="267.954" gradientUnits="userSpaceOnUse">
<stop stop-color="#5B8189"/>
<stop offset="1" stop-color="#A5BABD"/>
</linearGradient>
<linearGradient id="paint3_linear_319_344" x1="71.3109" y1="223.014" x2="118.152" y2="294.479" gradientUnits="userSpaceOnUse">
<stop stop-color="#5B8189"/>
<stop offset="1" stop-color="#A5BABD"/>
</linearGradient>
<linearGradient id="paint4_linear_319_344" x1="29.5161" y1="199.895" x2="44.5154" y2="226.641" gradientUnits="userSpaceOnUse">
<stop stop-color="#5B8189"/>
<stop offset="1" stop-color="#A5BABD"/>
</linearGradient>
<linearGradient id="paint5_linear_319_344" x1="41.4259" y1="223.227" x2="48.582" y2="234.648" gradientUnits="userSpaceOnUse">
<stop stop-color="#5B8189"/>
<stop offset="1" stop-color="#A5BABD"/>
</linearGradient>
<linearGradient id="paint6_linear_319_344" x1="80.9757" y1="178.96" x2="89.2355" y2="190.399" gradientUnits="userSpaceOnUse">
<stop stop-color="#5B8189"/>
<stop offset="1" stop-color="#A5BABD"/>
</linearGradient>
<linearGradient id="paint7_linear_319_344" x1="53.0157" y1="181.454" x2="63.0913" y2="196.614" gradientUnits="userSpaceOnUse">
<stop stop-color="#5B8189"/>
<stop offset="1" stop-color="#A5BABD"/>
</linearGradient>
<linearGradient id="paint8_linear_319_344" x1="67.6971" y1="-75.7425" x2="158.253" y2="59.0052" gradientUnits="userSpaceOnUse">
<stop stop-color="white"/>
<stop offset="1" stop-color="white" stop-opacity="0.01"/>
</linearGradient>
<clipPath id="clip0_319_344">
<rect x="8" y="8" width="231" height="282" rx="40" fill="white"/>
</clipPath>
</defs>
</svg>
