<svg width="231" height="282" viewBox="0 0 231 282" fill="none" xmlns="http://www.w3.org/2000/svg">
<g clip-path="url(#clip0_319_408)">
<rect width="231" height="282" rx="40" fill="url(#paint0_linear_319_408)"/>
<path opacity="0.6" d="M177.041 51.0885H163.676C159.559 51.0885 156.221 46.8638 156.221 41.6522C156.221 36.4407 159.559 32.2159 163.676 32.2159C164.919 32.2159 166.09 32.6007 167.12 33.2811C168.555 28.0147 172.505 24.2314 177.152 24.2314C183.012 24.2314 187.761 30.2436 187.761 37.66C187.761 37.812 187.759 37.9634 187.755 38.1141C189.466 39.2772 190.629 41.5631 190.629 44.1928C190.629 48.0012 188.19 51.0885 185.181 51.0885H177.152C177.136 51.0885 177.041 51.0885 177.041 51.0885H177.152H177.041Z" fill="url(#paint1_linear_319_408)"/>
<path fill-rule="evenodd" clip-rule="evenodd" d="M108.246 137.643L277.641 251.514V349.043H-46.75L-45.2168 256.219L108.246 137.643Z" fill="#198FEA"/>
<path fill-rule="evenodd" clip-rule="evenodd" d="M105.916 146.748L115.445 149.594L114.71 142.041L167.175 177.439H158.275L154.514 180.82L133.355 166.236L149.619 185.221L145.373 189.038L147.989 197.719L129.109 208.13L109.928 184.929L122.268 187.675L114.454 172.89L133.355 183.619L117.363 166.236L124.563 169.199L105.916 146.748Z" fill="url(#paint2_linear_319_408)"/>
<path fill-rule="evenodd" clip-rule="evenodd" d="M169.338 184.806L181.143 179.399L232.007 222.233L224.035 232.367L215.248 228.734L220.788 236.513L207.087 253.953L187.259 243.343L198.569 268.191L162.892 237.361L161.943 217.768L152.998 202.863L161.348 205.478L158.493 191.31L171.162 189.669L169.338 184.806Z" fill="url(#paint3_linear_319_408)"/>
<path fill-rule="evenodd" clip-rule="evenodd" d="M94.2222 206.979L112.164 218.634V210.784L149.214 250.552L143.351 234.642L164.997 243.343L186.215 274.518L169.786 277.369L136.545 258.068L153.321 280.225L133.517 283.661L94.2222 240.585V226.89L105.916 234.642L94.2222 206.979Z" fill="url(#paint4_linear_319_408)"/>
<path fill-rule="evenodd" clip-rule="evenodd" d="M35.5864 210.715L33.9482 200.139L52.4474 208.13L70.9466 226.527L52.4767 224.162L35.5864 210.715Z" fill="url(#paint5_linear_319_408)"/>
<path fill-rule="evenodd" clip-rule="evenodd" d="M44.4131 240.086L38.4595 228.149L53.4394 232.44L51.0302 237.281L44.4131 240.086Z" fill="url(#paint6_linear_319_408)"/>
<path fill-rule="evenodd" clip-rule="evenodd" d="M51.5376 191.881H57.4057L54.6966 184.929L62.6267 189.164L70.9468 197.472L60.2483 201.334L51.5376 191.881Z" fill="url(#paint7_linear_319_408)"/>
<path opacity="0.5" d="M40.791 100.714H59.2741C64.9681 100.714 69.584 94.9052 69.584 87.7394C69.584 80.5735 64.9681 74.7645 59.2741 74.7645C57.5559 74.7645 55.9358 75.2935 54.5111 76.2291C52.5273 68.9878 47.0649 63.7857 40.6371 63.7857C32.5341 63.7857 25.9653 72.0524 25.9653 82.25C25.9653 82.459 25.9681 82.6672 25.9736 82.8745C23.6082 84.4738 22 87.6168 22 91.2326C22 96.4692 25.3731 100.714 29.5341 100.714H40.6371C40.6602 100.714 40.791 100.714 40.791 100.714H40.6371H40.791Z" fill="url(#paint8_linear_319_408)"/>
<ellipse cx="107.25" cy="83.9286" rx="2.75" ry="3.35714" fill="white"/>
<ellipse opacity="0.8" cx="104.5" cy="204.786" rx="2.75" ry="3.35714" fill="white"/>
<ellipse opacity="0.9" cx="170.5" cy="50.3571" rx="2.75" ry="3.35714" fill="white"/>
<ellipse opacity="0.7" cx="159.5" cy="147.714" rx="2.75" ry="3.35714" fill="white"/>
<ellipse opacity="0.7" cx="145.75" cy="228.286" rx="2.75" ry="3.35714" fill="white"/>
<ellipse cx="111.375" cy="156.107" rx="1.375" ry="1.67857" fill="white"/>
<ellipse cx="89.375" cy="162.821" rx="1.375" ry="1.67857" fill="white"/>
<ellipse cx="61.875" cy="162.821" rx="1.375" ry="1.67857" fill="white"/>
<ellipse cx="42.625" cy="109.107" rx="1.375" ry="1.67857" fill="white"/>
<ellipse cx="72.875" cy="85.6071" rx="1.375" ry="1.67857" fill="white"/>
<ellipse cx="1.375" cy="1.67857" rx="1.375" ry="1.67857" transform="matrix(-1 0 0 1 187 208.143)" fill="white"/>
<ellipse cx="1.375" cy="1.67857" rx="1.375" ry="1.67857" transform="matrix(-1 0 0 1 195.25 184.643)" fill="white"/>
<ellipse cx="1.375" cy="1.67857" rx="1.375" ry="1.67857" transform="matrix(-1 0 0 1 129.25 204.786)" fill="white"/>
<ellipse cx="1.375" cy="1.67857" rx="1.375" ry="1.67857" transform="matrix(-1 0 0 1 137.5 167.857)" fill="white"/>
<ellipse cx="1.375" cy="1.67857" rx="1.375" ry="1.67857" transform="matrix(-1 0 0 1 118.25 127.571)" fill="white"/>
<ellipse cx="1.375" cy="1.67857" rx="1.375" ry="1.67857" transform="matrix(-1 0 0 1 143 137.643)" fill="white"/>
<ellipse cx="1.375" cy="1.67857" rx="1.375" ry="1.67857" transform="matrix(-1 0 0 1 165 80.5714)" fill="white"/>
<ellipse cx="1.56032" cy="1.50786" rx="1.56032" ry="1.50786" transform="matrix(0.566444 0.824101 -0.698549 0.715562 89.5771 225.166)" fill="white"/>
<ellipse cx="1.56032" cy="1.50786" rx="1.56032" ry="1.50786" transform="matrix(0.566444 0.824101 -0.698549 0.715562 57.6953 226.991)" fill="white"/>
<ellipse cx="1.56032" cy="1.50786" rx="1.56032" ry="1.50786" transform="matrix(0.566444 0.824101 -0.698549 0.715562 61.4966 201.185)" fill="white"/>
<ellipse cx="1.375" cy="1.67857" rx="1.375" ry="1.67857" transform="matrix(-1 0 0 1 211.75 198.071)" fill="white"/>
<ellipse cx="1.375" cy="1.67857" rx="1.375" ry="1.67857" transform="matrix(-1 0 0 1 206.25 181.286)" fill="white"/>
<ellipse cx="1.375" cy="1.67857" rx="1.375" ry="1.67857" transform="matrix(-1 0 0 1 187 141)" fill="white"/>
<ellipse cx="1.375" cy="1.67857" rx="1.375" ry="1.67857" transform="matrix(-1 0 0 1 167.75 167.857)" fill="white"/>
<ellipse cx="1.375" cy="1.67857" rx="1.375" ry="1.67857" transform="matrix(-1 0 0 1 162.25 110.786)" fill="white"/>
<ellipse cx="1.375" cy="1.67857" rx="1.375" ry="1.67857" transform="matrix(-1 0 0 1 30.25 201.429)" fill="white"/>
<ellipse cx="1.375" cy="1.67857" rx="1.375" ry="1.67857" transform="matrix(-1 0 0 1 38.5 164.5)" fill="white"/>
<ellipse cx="1.375" cy="1.67857" rx="1.375" ry="1.67857" transform="matrix(-1 0 0 1 24.75 144.357)" fill="white"/>
<ellipse cx="1.375" cy="1.67857" rx="1.375" ry="1.67857" transform="matrix(-1 0 0 1 8.25 117.5)" fill="white"/>
<ellipse cx="1.375" cy="1.67857" rx="1.375" ry="1.67857" transform="matrix(-1 0 0 1 99 188)" fill="white"/>
<ellipse cx="1.375" cy="1.67857" rx="1.375" ry="1.67857" transform="matrix(-1 0 0 1 74.25 130.929)" fill="white"/>
<ellipse cx="1.67857" cy="1.375" rx="1.67857" ry="1.375" transform="matrix(0 -1 -1 0 93.5 117.5)" fill="white"/>
<ellipse cx="1.67857" cy="1.375" rx="1.67857" ry="1.375" transform="matrix(0 -1 -1 0 140.25 87.2857)" fill="white"/>
<ellipse cx="72.875" cy="85.6071" rx="1.67857" ry="1.375" transform="rotate(-90 72.875 85.6071)" fill="white"/>
<ellipse cx="28.875" cy="58.75" rx="1.67857" ry="1.375" transform="rotate(-90 28.875 58.75)" fill="white"/>
<ellipse cx="1.67857" cy="1.375" rx="1.67857" ry="1.375" transform="matrix(0 -1 -1 0 107.25 47)" fill="white"/>
<ellipse cx="1.67857" cy="1.375" rx="1.67857" ry="1.375" transform="matrix(0 -1 -1 0 82.5 30.2143)" fill="white"/>
<ellipse cx="1.67857" cy="1.375" rx="1.67857" ry="1.375" transform="matrix(0 -1 -1 0 115.5 60.4286)" fill="white"/>
<ellipse cx="1.67857" cy="1.375" rx="1.67857" ry="1.375" transform="matrix(0 -1 -1 0 129.25 23.5)" fill="white"/>
<ellipse cx="1.67857" cy="1.375" rx="1.67857" ry="1.375" transform="matrix(0 -1 -1 0 145.75 16.7857)" fill="white"/>
<ellipse cx="1.375" cy="1.67857" rx="1.375" ry="1.67857" transform="matrix(-1 0 0 1 206.25 117.5)" fill="white"/>
<ellipse cx="1.375" cy="1.67857" rx="1.375" ry="1.67857" transform="matrix(-1 0 0 1 187 77.2143)" fill="white"/>
</g>
<defs>
<linearGradient id="paint0_linear_319_408" x1="-31.4597" y1="0" x2="-31.4597" y2="358.811" gradientUnits="userSpaceOnUse">
<stop stop-color="#3BA6FE"/>
<stop offset="1" stop-color="#D8F4FF"/>
</linearGradient>
<linearGradient id="paint1_linear_319_408" x1="156.221" y1="24.2314" x2="156.221" y2="51.0885" gradientUnits="userSpaceOnUse">
<stop stop-color="white"/>
<stop offset="1" stop-color="white" stop-opacity="0.01"/>
</linearGradient>
<linearGradient id="paint2_linear_319_408" x1="93.9076" y1="169.836" x2="135.498" y2="212.215" gradientUnits="userSpaceOnUse">
<stop stop-color="#91CFFF"/>
<stop offset="1" stop-color="#198FEA"/>
</linearGradient>
<linearGradient id="paint3_linear_319_408" x1="137.511" y1="216.743" x2="193.385" y2="271.397" gradientUnits="userSpaceOnUse">
<stop stop-color="#91CFFF"/>
<stop offset="1" stop-color="#198FEA"/>
</linearGradient>
<linearGradient id="paint4_linear_319_408" x1="76.19" y1="239.229" x2="122.665" y2="300.519" gradientUnits="userSpaceOnUse">
<stop stop-color="#91CFFF"/>
<stop offset="1" stop-color="#198FEA"/>
</linearGradient>
<linearGradient id="paint5_linear_319_408" x1="26.6959" y1="211.237" x2="41.8633" y2="234.615" gradientUnits="userSpaceOnUse">
<stop stop-color="#91CFFF"/>
<stop offset="1" stop-color="#198FEA"/>
</linearGradient>
<linearGradient id="paint6_linear_319_408" x1="35.5231" y1="233.169" x2="42.664" y2="243.02" gradientUnits="userSpaceOnUse">
<stop stop-color="#91CFFF"/>
<stop offset="1" stop-color="#198FEA"/>
</linearGradient>
<linearGradient id="paint7_linear_319_408" x1="47.733" y1="191.829" x2="57.7119" y2="204.807" gradientUnits="userSpaceOnUse">
<stop stop-color="#91CFFF"/>
<stop offset="1" stop-color="#198FEA"/>
</linearGradient>
<linearGradient id="paint8_linear_319_408" x1="69.584" y1="63.7857" x2="69.584" y2="100.714" gradientUnits="userSpaceOnUse">
<stop stop-color="white"/>
<stop offset="1" stop-color="white" stop-opacity="0.01"/>
</linearGradient>
<clipPath id="clip0_319_408">
<rect width="231" height="282" rx="40" fill="white"/>
</clipPath>
</defs>
</svg>
