<svg width="27" height="27" viewBox="0 0 27 27" fill="none" xmlns="http://www.w3.org/2000/svg">
<path d="M13.3337 3.3318e-09C10.1676 -7.0743e-05 7.10477 1.12651 4.69335 3.17814C2.28193 5.22977 0.679268 8.07255 0.172164 11.1978C-0.33494 14.323 0.286608 17.5267 1.92558 20.2355C3.56456 22.9444 6.11399 24.9816 9.11766 25.9827C9.78433 26.1 10.0337 25.7 10.0337 25.3493C10.0337 25.0333 10.0177 23.9827 10.0177 22.8667C6.66699 23.4827 5.80033 22.0493 5.53366 21.3C5.23785 20.5703 4.76878 19.9237 4.16699 19.416C3.70033 19.1667 3.03366 18.5493 4.14966 18.5333C4.57617 18.5795 4.98526 18.7278 5.34224 18.9657C5.69922 19.2036 5.99357 19.5241 6.20033 19.9C6.38264 20.2276 6.62779 20.5159 6.92175 20.7486C7.2157 20.9813 7.55268 21.1536 7.91337 21.2558C8.27406 21.358 8.65137 21.388 9.02367 21.3441C9.39598 21.3002 9.75596 21.1833 10.083 21C10.1407 20.3218 10.4431 19.6878 10.9337 19.216C7.96699 18.8827 4.86699 17.7333 4.86699 12.6333C4.8481 11.308 5.3371 10.0256 6.23366 9.04933C5.82607 7.89762 5.87377 6.63372 6.36699 5.516C6.36699 5.516 7.48299 5.16667 10.0337 6.88267C12.2154 6.2826 14.5186 6.2826 16.7003 6.88267C19.2497 5.14933 20.367 5.516 20.367 5.516C20.8604 6.63369 20.9081 7.89764 20.5003 9.04933C21.3996 10.0239 21.889 11.3074 21.867 12.6333C21.867 17.7493 18.7497 18.8827 15.783 19.216C16.1012 19.5385 16.3463 19.9257 16.5016 20.3513C16.6569 20.777 16.7187 21.231 16.683 21.6827C16.683 23.4667 16.667 24.9 16.667 25.3493C16.667 25.7 16.9163 26.116 17.583 25.9827C20.5811 24.9732 23.123 22.9312 24.7548 20.221C26.3866 17.5108 27.0021 14.3089 26.4915 11.1869C25.9809 8.06488 24.3774 5.22591 21.9673 3.17677C19.5571 1.12764 16.4972 0.00172008 13.3337 3.3318e-09Z" fill="#333333"/>
</svg>
