<svg width="916" height="282" viewBox="0 0 916 282" fill="none" xmlns="http://www.w3.org/2000/svg">
<g>
<g clip-path="url(#clip0_20_5)">
<rect width="916" height="282" rx="54" fill="url(#paint0_linear_20_5)"/>
<path id="Path 51" fill-rule="evenodd" clip-rule="evenodd" d="M990 182.95C990 182.95 858.165 220 760 220C630.151 220 545.203 190.208 440.168 190.208C317.753 190.208 302.349 182.346 233.704 182.346C136.684 182.346 8.6333 197.088 -58.8976 191.767C-113.394 187.474 -179 178.801 -179 178.801V251.623L990 256V182.95Z" fill="url(#paint1_linear_20_5)"/>
<path id="Path 51_2" fill-rule="evenodd" clip-rule="evenodd" d="M-33 236.976C-33 236.976 -30.3657 198.358 29.3544 192.319C81.569 188.728 121.825 216.6 168.515 216.6C222.93 216.6 248.574 200.425 301.406 200.425C339.939 200.425 377.565 214.488 430.038 209.613C546.587 198.786 486.637 196.928 486.637 196.928V258.311L-33 262V236.976Z" fill="url(#paint2_linear_20_5)"/>
<path id="Path 56" fill-rule="evenodd" clip-rule="evenodd" d="M427 236.976C427 236.976 429.634 198.358 489.354 192.319C541.569 188.728 581.825 216.6 628.515 216.6C682.93 216.6 723.668 223 776.5 223C815.033 223 852.528 221.475 905 216.6C1021.55 205.773 946.637 196.928 946.637 196.928V258.311L427 262V236.976Z" fill="url(#paint3_linear_20_5)"/>
<path id="Path 53" fill-rule="evenodd" clip-rule="evenodd" d="M-33 228.611C-33 228.611 -12.225 205.425 4.07901 203.091C20.3831 200.757 29.4069 223.359 29.4069 223.359C29.4069 223.359 37.0403 222.37 41.1865 223.359C45.3326 224.347 48.6157 228.611 48.6157 228.611C48.6157 228.611 53.8964 214.992 75.8242 214.992C97.752 214.992 108.892 233.392 108.892 233.392C108.892 233.392 116.191 228.611 123.793 228.611C131.394 228.611 139.998 233.392 139.998 233.392C139.998 233.392 145.367 214.992 168.023 214.992C190.678 214.992 200.342 230.606 200.342 230.606C200.342 230.606 209.496 225.81 218.39 225.81C227.285 225.81 237.899 230.606 237.899 230.606C237.899 230.606 240.877 215.458 254.126 206.529C267.375 197.6 296.221 203.091 296.221 203.091L312 209.989V282H-33V228.611Z" fill="url(#paint4_linear_20_5)"/>
<path id="Path 54" fill-rule="evenodd" clip-rule="evenodd" d="M656 228.611C656 228.611 635.225 205.425 618.921 203.091C602.617 200.757 593.593 223.359 593.593 223.359C593.593 223.359 585.96 222.37 581.814 223.359C577.667 224.347 574.384 228.611 574.384 228.611C574.384 228.611 569.104 214.992 547.176 214.992C525.248 214.992 514.108 233.392 514.108 233.392C514.108 233.392 506.809 228.611 499.207 228.611C491.606 228.611 483.002 233.392 483.002 233.392C483.002 233.392 477.633 214.992 454.977 214.992C432.322 214.992 422.658 230.606 422.658 230.606C422.658 230.606 413.504 225.81 404.61 225.81C395.715 225.81 385.101 230.606 385.101 230.606C385.101 230.606 382.123 215.458 368.874 206.529C355.625 197.6 326.779 203.091 326.779 203.091L311 209.989V282H656V228.611Z" fill="url(#paint5_linear_20_5)"/>
<path id="Path 55" fill-rule="evenodd" clip-rule="evenodd" d="M656 228.611C656 228.611 677.696 225.693 694 223.359C710.304 221.024 718.407 223.359 718.407 223.359C718.407 223.359 726.04 222.37 730.186 223.359C734.333 224.347 737.616 228.611 737.616 228.611C737.616 228.611 747.572 223.359 769.5 223.359C791.428 223.359 797.892 233.392 797.892 233.392C797.892 233.392 805.191 228.611 812.793 228.611C820.394 228.611 828.998 233.392 828.998 233.392C828.998 233.392 841.344 225.81 864 225.81C886.656 225.81 889.342 230.606 889.342 230.606C889.342 230.606 909.106 233.392 918 233.392C926.894 233.392 926.899 230.606 926.899 230.606C926.899 230.606 929.877 215.458 943.126 206.529C956.375 197.6 985.221 203.091 985.221 203.091L1001 209.989V282H656V228.611Z" fill="url(#paint6_linear_20_5)"/>
<circle id="Oval 1" cx="654" cy="35" r="50" fill="#FEFFCA"/>
</g>
</g>
<defs>
<linearGradient id="paint0_linear_20_5" x1="0" y1="0" x2="0" y2="282" gradientUnits="userSpaceOnUse">
<stop stop-color="#CFE7E9"/>
<stop offset="0.552083" stop-color="#DDFDFF"/>
</linearGradient>
<linearGradient id="paint1_linear_20_5" x1="990" y1="163" x2="990" y2="256" gradientUnits="userSpaceOnUse">
<stop stop-color="#AAF3FA"/>
<stop offset="1" stop-color="#D5FAFD"/>
</linearGradient>
<linearGradient id="paint2_linear_20_5" x1="-33" y1="192" x2="-33" y2="262" gradientUnits="userSpaceOnUse">
<stop stop-color="#7EDEE7"/>
<stop offset="1" stop-color="#B5F1F5"/>
</linearGradient>
<linearGradient id="paint3_linear_20_5" x1="427" y1="192" x2="427" y2="262" gradientUnits="userSpaceOnUse">
<stop stop-color="#7EDEE7"/>
<stop offset="1" stop-color="#B5F1F5"/>
</linearGradient>
<linearGradient id="paint4_linear_20_5" x1="-33" y1="201" x2="-33" y2="282" gradientUnits="userSpaceOnUse">
<stop stop-color="#4297A8"/>
<stop offset="1" stop-color="#77C8D3"/>
</linearGradient>
<linearGradient id="paint5_linear_20_5" x1="656" y1="201" x2="656" y2="282" gradientUnits="userSpaceOnUse">
<stop stop-color="#4297A8"/>
<stop offset="1" stop-color="#77C8D3"/>
</linearGradient>
<linearGradient id="paint6_linear_20_5" x1="656" y1="201" x2="656" y2="282" gradientUnits="userSpaceOnUse">
<stop stop-color="#4297A8"/>
<stop offset="1" stop-color="#77C8D3"/>
</linearGradient>
<clipPath id="clip0_20_5">
<rect width="916" height="282" rx="54" fill="white"/>
</clipPath>
</defs>
</svg>
