<svg width="916" height="282" viewBox="0 0 916 282" fill="none" xmlns="http://www.w3.org/2000/svg">
<g clip-path="url(#clip0_481_504)">
<rect width="927" height="302" fill="url(#paint0_linear_481_504)"/>
<path opacity="0.209122" fill-rule="evenodd" clip-rule="evenodd" d="M927 165.622C927 165.622 847.303 156 787.107 156C707.482 156 654.244 166.276 589.835 166.276C514.768 166.276 481.116 156 436.466 156.208C307.463 156.808 -9.54961e-06 229 -9.54961e-06 229H927V165.622Z" fill="url(#paint1_linear_481_504)"/>
<path d="M280.794 189.014C264.39 183.924 240.689 188.448 227.929 184.345C210.873 178.862 207 177.427 191.425 175.93C177.206 174.562 164.332 177.656 150.637 170.806C140.793 165.883 131.508 166.381 119.628 167.475C107.748 168.569 104.098 167.358 88.1102 162.395C77.5373 159.113 67.8757 157.951 46.0006 158.224C27.5511 158.455 13.0406 156.921 -0.446099 155C-13.4151 165.907 -22.8171 177.537 -28 189.703C24.8357 191.783 40.717 190.879 61.3132 193.371C83.9175 196.107 303.641 212.791 307.531 211.971C311.42 211.15 314 198.128 314 198.128C291.934 196.633 291.633 192.377 280.794 189.014Z" fill="#36B294"/>
<path d="M280.794 189.014C264.39 183.924 240.689 188.448 227.929 184.345C210.873 178.862 207 177.427 191.425 175.93C177.206 174.562 164.332 177.656 150.637 170.806C140.793 165.883 131.508 166.381 119.628 167.475C107.748 168.569 104.098 167.358 88.1102 162.395C77.5373 159.113 67.8757 157.951 46.0006 158.224C27.5511 158.455 13.0406 156.921 -0.446099 155C-13.4151 165.907 -22.8171 177.537 -28 189.703C24.8357 191.783 40.717 190.879 61.3132 193.371C83.9175 196.107 303.641 212.791 307.531 211.971C311.42 211.15 314 198.128 314 198.128C291.934 196.633 291.633 192.377 280.794 189.014Z" fill="#5D6583" fill-opacity="0.738227"/>
<path d="M765.5 211C761.908 211 759 209.737 759 208.181V177.819C759 176.263 761.909 175 765.5 175C769.092 175 772 176.263 772 177.819V208.181C772 209.738 769.092 211 765.5 211Z" fill="#674447"/>
<path d="M765.5 211C761.908 211 759 209.737 759 208.181V177.819C759 176.263 761.909 175 765.5 175C769.092 175 772 176.263 772 177.819V208.181C772 209.738 769.092 211 765.5 211Z" fill="#8588A6" fill-opacity="0.469706"/>
<path d="M806 175.462C806 185.148 787.868 193 765.5 193C743.132 193 725 185.148 725 175.462C725 165.775 743.132 136 765.5 136C787.868 136.001 806 165.775 806 175.462Z" fill="#43AB5F"/>
<path d="M806 175.462C806 185.148 787.868 193 765.5 193C743.132 193 725 185.148 725 175.462C725 165.775 743.132 136 765.5 136C787.868 136.001 806 165.775 806 175.462Z" fill="#A0A7C3" fill-opacity="0.398585"/>
<path d="M765.733 136C760.15 136 754.834 137.879 750 140.843H750.001C770.356 140.843 786.857 168.095 786.857 176.961C786.857 184.672 774.361 191.102 757.714 192.648C760.306 192.876 762.985 193 765.731 193C787.971 193 806 185.148 806 175.462C806.001 165.775 787.971 136 765.733 136Z" fill="#71BE63"/>
<path d="M765.733 136C760.15 136 754.834 137.879 750 140.843H750.001C770.356 140.843 786.857 168.095 786.857 176.961C786.857 184.672 774.361 191.102 757.714 192.648C760.306 192.876 762.985 193 765.731 193C787.971 193 806 185.148 806 175.462C806.001 165.775 787.971 136 765.733 136Z" fill="#A0A7C3" fill-opacity="0.45"/>
<path opacity="0.299991" d="M240 20C240 14.5876 244.219 10.2001 249.423 10.2001C250.208 10.2001 250.96 10.329 251.689 10.5176C254.148 7.7558 257.634 6 261.539 6C268.973 6 275 12.2683 275 20H240Z" fill="white"/>
<path opacity="0.299991" d="M731 22C731 16.5876 735.219 12.2001 740.423 12.2001C741.208 12.2001 741.96 12.329 742.689 12.5176C745.148 9.7558 748.634 8 752.539 8C759.973 8 766 14.2683 766 22H731Z" fill="white"/>
<path d="M352.61 207.971C342.775 207.971 341.135 204.335 340.171 203.6C329.407 195.403 316.376 199.228 294.997 199.228C278.283 199.228 274.866 190.121 265.537 190.486C256.208 190.85 241.178 196.678 228.221 194.857C209.627 192.243 209.044 188.3 190.903 186.114C174.896 184.185 161.361 185.568 153.585 181.743C138.448 174.295 127.542 182.426 103.829 177.371C79.7129 172.231 72.2134 181.743 54.0741 181.743C35.0171 181.743 41.6339 173 16.7564 173C2.66347 173 -5.64266 179.426 -23.4678 181.243C-29.6346 191.249 -33 201.648 -33 212.343C-33 217.857 -32.0385 223.286 -30.355 228.633C-24.634 230.618 -18.4482 232.364 -12.2449 233.36C9.9949 236.932 477 240 477 240V225.457C442.792 225.457 442.792 216.714 414.805 216.714C377.098 216.714 380.597 207.971 352.61 207.971Z" fill="#59928E"/>
<path d="M123.456 314L470 244.248L461.227 237.133C377.318 237.133 231.71 205.078 -33 216.435C-33 251.476 1.16891 283.497 57.5663 308.124C92.9898 311.304 123.456 314 123.456 314Z" fill="#739A8F"/>
<path d="M460.478 232.99C383.595 232.99 254.795 206.198 30 210.459C229.86 210.524 352.425 244 415.187 244L432.719 241.553L461 233.412L460.478 232.99Z" fill="#87ADA2"/>
<path opacity="0.9" d="M320.588 27.9796C321.752 27.9796 322.864 28.1633 323.945 28.4319C327.588 24.5 329.663 22 338.537 22C347.411 22 355.594 29.3862 355.973 37.5453C356.351 45.7044 353.135 49 325.514 49C308 49 308 43.4695 308 37.5453C308 31.6211 314.674 27.9796 320.588 27.9796Z" fill="url(#paint2_linear_481_504)"/>
<path opacity="0.9" d="M546.412 11.9796C545.248 11.9796 544.136 12.1633 543.055 12.4319C539.412 8.50002 537.337 6 528.463 6C519.589 6 511.406 13.3862 511.027 21.5453C510.649 29.7044 513.865 33 541.486 33C559 33 559 27.4695 559 21.5453C559 15.6211 552.326 11.9796 546.412 11.9796Z" fill="url(#paint3_linear_481_504)"/>
<path d="M-592 266.352C-462.587 314.486 225.843 375 560.5 375C1016.15 375 985 285.909 985 209.315C985 207.868 984.613 206.437 984.352 205C474.168 205.393 242.819 265.656 -592 265.656V266.352Z" fill="#71BE63"/>
<path d="M-592 266.352C-462.587 314.486 225.843 375 560.5 375C1016.15 375 985 285.909 985 209.315C985 207.868 984.613 206.437 984.352 205C474.168 205.393 242.819 265.656 -592 265.656V266.352Z" fill="#477468"/>
<path d="M675.124 220.819C671.604 220.819 668.753 219.405 668.753 217.662V183.662C668.753 181.919 671.603 180.506 675.124 180.506C678.645 180.506 681.494 181.919 681.494 183.662V217.662C681.494 219.405 678.644 220.819 675.124 220.819Z" fill="#674447"/>
<path d="M675.124 220.819C671.604 220.819 668.753 219.405 668.753 217.662V183.662C668.753 181.919 671.603 180.506 675.124 180.506C678.645 180.506 681.494 181.919 681.494 183.662V217.662C681.494 219.405 678.644 220.819 675.124 220.819Z" fill="#8588A6" fill-opacity="0.469706"/>
<path d="M715.243 180.766C715.243 191.754 697.28 200.662 675.122 200.662C652.963 200.662 635 191.754 635 180.766C635 169.778 652.963 136 675.122 136C697.28 136 715.243 169.778 715.243 180.766Z" fill="#43AB5F"/>
<path d="M715.243 180.766C715.243 191.754 697.28 200.662 675.122 200.662C652.963 200.662 635 191.754 635 180.766C635 169.778 652.963 136 675.122 136C697.28 136 715.243 169.778 715.243 180.766Z" fill="#A0A7C3" fill-opacity="0.398585"/>
<path d="M675.122 136C669.559 136 664.262 138.132 659.446 141.495H659.447C679.729 141.495 696.169 172.41 696.169 182.467C696.169 191.215 683.719 198.509 667.132 200.264C669.715 200.522 672.385 200.663 675.12 200.663C697.279 200.663 715.243 191.755 715.243 180.767C715.244 169.778 697.28 136 675.122 136Z" fill="#71BE63"/>
<path d="M675.122 136C669.559 136 664.262 138.132 659.446 141.495H659.447C679.729 141.495 696.169 172.41 696.169 182.467C696.169 191.215 683.719 198.509 667.132 200.264C669.715 200.522 672.385 200.663 675.12 200.663C697.279 200.663 715.243 191.755 715.243 180.767C715.244 169.778 697.28 136 675.122 136Z" fill="#A0A7C3" fill-opacity="0.45"/>
<path opacity="0.9" d="M203.694 54H227C234.18 54 240 48.1797 240 41C240 33.8203 234.18 28 227 28C224.833 28 222.791 28.53 220.994 29.4675C218.493 22.2121 211.605 17 203.5 17C193.283 17 185 25.2827 185 35.5C185 35.7094 185.003 35.918 185.01 36.1257C182.028 37.7281 180 40.8772 180 44.5C180 49.7467 184.253 54 189.5 54H203.5C203.529 54 203.694 54 203.694 54H203.5H203.694Z" fill="url(#paint4_linear_481_504)"/>
<path opacity="0.9" d="M430.306 45H407C399.82 45 394 40.5954 394 35.1622C394 29.7289 399.82 25.3243 407 25.3243C409.167 25.3243 411.209 25.7254 413.006 26.4348C415.507 20.9443 422.395 17 430.5 17C440.717 17 449 23.268 449 31C449 31.1585 448.997 31.3163 448.99 31.4735C451.972 32.6861 454 35.0692 454 37.8108C454 41.7813 449.747 45 444.5 45H430.5C430.471 45 430.306 45 430.306 45H430.5H430.306Z" fill="url(#paint5_linear_481_504)"/>
<path opacity="0.9" d="M631.694 51H655C662.18 51 668 45.1797 668 38C668 30.8203 662.18 25 655 25C652.833 25 650.791 25.53 648.994 26.4675C646.493 19.2121 639.605 14 631.5 14C621.283 14 613 22.2827 613 32.5C613 32.7094 613.003 32.918 613.01 33.1257C610.028 34.7281 608 37.8772 608 41.5C608 46.7467 612.253 51 617.5 51H631.5C631.529 51 631.694 51 631.694 51H631.5H631.694Z" fill="url(#paint6_linear_481_504)"/>
</g>
<defs>
<linearGradient id="paint0_linear_481_504" x1="463.5" y1="0" x2="463.5" y2="302" gradientUnits="userSpaceOnUse">
<stop stop-color="#A098C5"/>
<stop offset="1" stop-color="#A0A7C3"/>
</linearGradient>
<linearGradient id="paint1_linear_481_504" x1="-509.956" y1="207.725" x2="-505.672" y2="105.044" gradientUnits="userSpaceOnUse">
<stop stop-color="#537988"/>
<stop offset="1" stop-color="#165B32"/>
</linearGradient>
<linearGradient id="paint2_linear_481_504" x1="321.714" y1="-2.29988" x2="291.288" y2="58.5916" gradientUnits="userSpaceOnUse">
<stop stop-color="white"/>
<stop offset="1" stop-color="white" stop-opacity="0.01"/>
</linearGradient>
<linearGradient id="paint3_linear_481_504" x1="545.286" y1="-18.2999" x2="575.712" y2="42.5916" gradientUnits="userSpaceOnUse">
<stop stop-color="white"/>
<stop offset="1" stop-color="white" stop-opacity="0.01"/>
</linearGradient>
<linearGradient id="paint4_linear_481_504" x1="191.07" y1="-58.3024" x2="249.666" y2="48.7069" gradientUnits="userSpaceOnUse">
<stop stop-color="white"/>
<stop offset="1" stop-color="white" stop-opacity="0.01"/>
</linearGradient>
<linearGradient id="paint5_linear_481_504" x1="442.93" y1="-39.9856" x2="405.704" y2="49.8498" gradientUnits="userSpaceOnUse">
<stop stop-color="white"/>
<stop offset="1" stop-color="white" stop-opacity="0.01"/>
</linearGradient>
<linearGradient id="paint6_linear_481_504" x1="619.07" y1="-61.3024" x2="677.666" y2="45.7069" gradientUnits="userSpaceOnUse">
<stop stop-color="white"/>
<stop offset="1" stop-color="white" stop-opacity="0.01"/>
</linearGradient>
<clipPath id="clip0_481_504">
<rect width="916" height="282" rx="54" fill="white"/>
</clipPath>
</defs>
</svg>
