<svg width="34" height="34" viewBox="0 0 34 34" fill="none" xmlns="http://www.w3.org/2000/svg">
<path d="M16.9993 4.95833C21.488 4.95833 24.0345 7.92979 24.4049 11.5175H24.5182C27.4068 11.5175 29.7486 13.8536 29.7486 16.7344C29.7486 19.6159 27.4068 21.9512 24.5182 21.9512H24.4708L21.425 27.0222C21.2597 27.2936 20.9966 27.4913 20.6899 27.5743C20.3831 27.6573 20.0562 27.6193 19.7767 27.4682C19.4971 27.3171 19.2863 27.0645 19.1877 26.7624C19.0891 26.4603 19.1103 26.1319 19.2468 25.845L19.3 25.7458L21.5787 21.9512H18.8041L15.7583 27.0222C15.5931 27.2936 15.3299 27.4913 15.0232 27.5743C14.7165 27.6573 14.3896 27.6193 14.11 27.4682C13.8305 27.3171 13.6196 27.0645 13.521 26.7624C13.4224 26.4603 13.4436 26.1319 13.5802 25.845L13.6333 25.7458L15.912 21.9512H13.1375L10.0916 27.0222C9.92641 27.2936 9.66327 27.4913 9.35653 27.5743C9.0498 27.6573 8.7229 27.6193 8.44335 27.4682C8.1638 27.3171 7.95295 27.0645 7.85435 26.7624C7.75575 26.4603 7.77692 26.1319 7.9135 25.845L7.96662 25.7458L10.2453 21.9512H9.48033C6.59175 21.9512 4.25 19.6159 4.25 16.7344C4.25 13.8536 6.59175 11.5175 9.48033 11.5175H9.59367C9.96625 7.9057 12.5099 4.95833 16.9993 4.95833Z" fill="#555555"/>
</svg>
