<svg width="34" height="34" viewBox="0 0 34 34" fill="none" xmlns="http://www.w3.org/2000/svg">
<path d="M19.7404 20.621C19.9079 20.7718 20.0086 20.983 20.0204 21.2081C20.0322 21.4332 19.9541 21.6537 19.8033 21.8212L18.0574 23.8051H21.25C21.4097 23.8056 21.5659 23.851 21.701 23.9362C21.836 24.0214 21.9443 24.1429 22.0135 24.2867C22.0827 24.4306 22.1099 24.5911 22.0922 24.7497C22.0744 24.9084 22.0123 25.0588 21.913 25.1838L17.748 30.2838C17.6076 30.4603 17.4027 30.5738 17.1786 30.5993C16.9545 30.6248 16.7294 30.5603 16.5529 30.4198C16.3764 30.2794 16.2629 30.0745 16.2374 29.8504C16.2119 29.6263 16.2765 29.4012 16.4169 29.2247L19.4854 25.5051H16.15C15.9858 25.5051 15.8251 25.4575 15.6874 25.3681C15.5497 25.2787 15.4408 25.1513 15.3739 25.0014C15.307 24.8514 15.285 24.6853 15.3105 24.5231C15.336 24.3609 15.4079 24.2095 15.5176 24.0873L18.5385 20.6839C18.6132 20.6007 18.7036 20.5331 18.8045 20.4849C18.9054 20.4368 19.0148 20.4089 19.1264 20.4031C19.2381 20.3973 19.3498 20.4135 19.4551 20.4509C19.5605 20.4883 19.6574 20.5461 19.7404 20.621ZM18.7 10.2C22.8905 10.2 25.2671 12.8758 25.6122 16.1058H25.7176C28.4138 16.1058 30.6 18.2087 30.6 20.8029C30.6 23.3971 28.4138 25.5 25.7176 25.5H23.6606C24.1723 24.0618 23.2679 22.4179 21.709 22.1442L21.4931 22.1153C21.6429 21.5616 21.6017 20.9736 21.3761 20.4462C21.1505 19.9188 20.7536 19.4829 20.2496 19.2089C19.7457 18.9349 19.1641 18.8389 18.5988 18.9362C18.0335 19.0336 17.5176 19.3187 17.1343 19.7455L14.2545 22.95C13.9447 23.2879 13.7333 23.7042 13.6434 24.1538C13.5535 24.6033 13.5884 25.0689 13.7445 25.5H11.6824C8.98621 25.5 6.80001 23.3971 6.80001 20.8029C6.80001 18.2087 8.98621 16.1058 11.6824 16.1058H11.7878C12.1363 12.8537 14.5095 10.2 18.7 10.2ZM14.2664 5.10001C16.7416 5.10001 18.9006 6.50761 19.9665 8.57651C19.5463 8.52499 19.1233 8.49944 18.7 8.50001C14.637 8.50001 11.6756 10.7219 10.6182 14.0862L10.5128 14.45L10.4346 14.7679L10.1541 14.8189C9.12749 15.028 8.16859 15.488 7.36294 16.1578C6.5573 16.8275 5.92997 17.6863 5.53691 18.6575C4.72704 18.1641 4.09565 17.4252 3.73452 16.5484C3.37339 15.6715 3.30134 14.7023 3.52885 13.7816C3.75636 12.861 4.27156 12.0369 4.99957 11.4292C5.72757 10.8214 6.63043 10.4617 7.57691 10.4023L7.95431 10.3938C8.21645 8.91027 8.99283 7.56649 10.1471 6.5984C11.3014 5.63031 12.7599 5.0998 14.2664 5.10001Z" fill="#555555"/>
</svg>
