<svg width="80" height="80" viewBox="0 0 80 80" fill="none" xmlns="http://www.w3.org/2000/svg">
<g filter="url(#filter0_d_564_1433)">
<rect width="80" height="80" rx="16" fill="#71C2CE" shape-rendering="crispEdges"/>
<path fill-rule="evenodd" clip-rule="evenodd" d="M41.6361 26V28.4351H43.6361V26H41.6361ZM54 36.3639H51.5649L51.5649 38.3639H54V36.3639ZM49.8687 32.0335L51.9775 30.8159L52.9775 32.548L50.8687 33.7656L49.8687 32.0335ZM47.4521 27.0225L46.2345 29.1313L47.9666 30.1313L49.1841 28.0225L47.4521 27.0225ZM37.3056 30.1313L36.0881 28.0225L37.8201 27.0225L39.0377 29.1313L37.3056 30.1313ZM54 46.75C54 43.7235 52.2095 41.1301 49.6657 40.0442C49.981 39.2109 50.1536 38.3075 50.1536 37.3638C50.1536 33.1797 46.7617 29.7878 42.5776 29.7878C40.3591 29.7878 38.3633 30.7414 36.9778 32.2611C36.8194 32.2537 36.6601 32.25 36.5 32.25C30.701 32.25 26 37.1189 26 43.125C26 49.1311 30.701 54 36.5 54C36.5658 54 36.6315 53.9994 36.6971 53.9981V54H46.9949L47 54L47.0051 54H47.2414V53.9958C50.9956 53.864 54 50.6704 54 46.75ZM48.1536 37.3638C48.1536 38.1349 47.9971 38.8693 47.7141 39.5373C47.4793 39.5126 47.2411 39.5 47 39.5C46.8017 39.5 46.6053 39.5085 46.4111 39.5253C45.3046 36.257 42.7337 33.702 39.5134 32.7045C40.3927 32.1251 41.4458 31.7878 42.5776 31.7878C45.6571 31.7878 48.1536 34.2843 48.1536 37.3638ZM36.5 52L36.5411 51.9999V52L36.6971 52L46.9973 52H47L47.0043 52C49.6983 51.9976 52 49.7147 52 46.75C52 43.7838 49.6958 41.5 47 41.5C46.2698 41.5 45.5684 41.6675 44.9337 41.9708C44.8474 41.2839 44.685 40.6218 44.4555 39.9939L44.4577 39.993C43.2369 36.6095 40.0973 34.25 36.5 34.25C31.8712 34.25 28 38.1567 28 43.125C28 48.0933 31.8712 52 36.5 52Z" fill="white"/>
</g>
<defs>
<filter id="filter0_d_564_1433" x="0" y="0" width="80" height="80" filterUnits="userSpaceOnUse" color-interpolation-filters="sRGB">
<feFlood flood-opacity="0" result="BackgroundImageFix"/>
<feColorMatrix in="SourceAlpha" type="matrix" values="0 0 0 0 0 0 0 0 0 0 0 0 0 0 0 0 0 0 127 0" result="hardAlpha"/>
<feOffset/>
<feComposite in2="hardAlpha" operator="out"/>
<feColorMatrix type="matrix" values="0 0 0 0 0 0 0 0 0 0 0 0 0 0 0 0 0 0 1 0"/>
<feBlend mode="normal" in2="BackgroundImageFix" result="effect1_dropShadow_564_1433"/>
<feBlend mode="normal" in="SourceGraphic" in2="effect1_dropShadow_564_1433" result="shape"/>
</filter>
</defs>
</svg>
