<svg width="24" height="24" viewBox="0 0 24 24" fill="none" xmlns="http://www.w3.org/2000/svg">
<path d="M18.7692 15.6667L22.1538 14.75L23 18.4167" stroke="#555555" stroke-width="1.71429" stroke-linecap="round" stroke-linejoin="round"/>
<path d="M22.1538 14.75C21.4022 17.0575 20.0368 19.0723 18.2299 20.5404C16.4229 22.0086 14.2552 22.8644 12 23C9.91527 23.0004 7.88095 22.3057 6.17336 21.0101C4.46576 19.7145 3.16767 17.8809 2.45538 15.7584M5.23077 8.33337L1.84615 9.25004L1 5.58337" stroke="#555555" stroke-width="1.71429" stroke-linecap="round" stroke-linejoin="round"/>
<path d="M1.84616 9.25C3.2677 5.03333 7.63385 1 12 1C14.0949 1.00638 16.1367 1.71455 17.8455 3.02744C19.5542 4.34033 20.8463 6.19365 21.5446 8.33333" stroke="#555555" stroke-width="1.71429" stroke-linecap="round" stroke-linejoin="round"/>
</svg>
