<svg width="20" height="11" viewBox="0 0 20 11" fill="none" xmlns="http://www.w3.org/2000/svg">
<path d="M9.35094 10.4556L9.35096 10.4556C9.62204 10.7267 10.065 10.7267 10.3361 10.4556L10.2657 10.3852L10.3361 10.4556L18.6998 2.09198C18.8391 1.95267 18.9049 1.77563 18.9049 1.59589C18.9049 1.41891 18.8351 1.23855 18.6998 1.10329C18.4287 0.832204 17.9857 0.832204 17.7146 1.10329L9.84354 8.97437L2.08847 1.2193C1.81739 0.948219 1.37438 0.948219 1.1033 1.2193C0.832224 1.49038 0.832218 1.93338 1.10328 2.20446C1.10329 2.20446 1.10329 2.20447 1.1033 2.20448L9.35094 10.4556Z" fill="#555555" stroke="#555555" stroke-width="0.2"/>
</svg>
