<svg width="332" height="208" viewBox="0 0 332 208" fill="none" xmlns="http://www.w3.org/2000/svg">
<g id="Weather / Morning / Cloudy " filter="url(#filter0_d_48_1474)">
<g clip-path="url(#clip0_48_1474)">
<rect id="Rectangle 23" x="2" y="2" width="329" height="209" fill="#B7CCEB"/>
<path id="Oval 4" fill-rule="evenodd" clip-rule="evenodd" d="M68.8788 66H93.35C100.889 66 107 60.8089 107 54.4054C107 48.0019 100.889 42.8108 93.35 42.8108C91.0751 42.8108 88.9301 43.2835 87.0439 44.1196C84.4174 37.6487 77.1853 33 68.675 33C57.9469 33 49.25 40.3873 49.25 49.5C49.25 49.6868 49.2537 49.8728 49.2609 50.0581C46.1292 51.4872 44 54.2959 44 57.527C44 62.2065 48.466 66 53.975 66H68.675C68.7057 66 68.8788 66 68.8788 66H68.675H68.8788Z" fill="#F6F6F8"/>
<g id="Group">
<path id="Fill 1" fill-rule="evenodd" clip-rule="evenodd" d="M329.015 181.334C329.015 191.306 320.201 199.389 309.329 199.389C298.457 199.389 289.643 191.306 289.643 181.334C289.643 171.363 298.457 163.28 309.329 163.28C320.201 163.28 329.015 171.363 329.015 181.334Z" fill="#BFD881"/>
<path id="Fill 2" fill-rule="evenodd" clip-rule="evenodd" d="M320.523 198.68C320.523 208.651 311.709 216.734 300.837 216.734C289.965 216.734 281.15 208.651 281.15 198.68C281.15 188.71 289.965 180.626 300.837 180.626C311.709 180.626 320.523 188.71 320.523 198.68Z" fill="#BFD881"/>
<path id="Fill 3" fill-rule="evenodd" clip-rule="evenodd" d="M333.647 160.803C333.647 170.774 324.833 178.857 313.961 178.857C303.089 178.857 294.275 170.774 294.275 160.803C294.275 150.831 303.089 142.748 313.961 142.748C324.833 142.748 333.647 150.831 333.647 160.803Z" fill="#BFD881"/>
<path id="Fill 4" fill-rule="evenodd" clip-rule="evenodd" d="M357 192.397C357 205.643 345.291 216.381 330.849 216.381C316.406 216.381 304.697 205.643 304.697 192.397C304.697 179.151 316.406 168.413 330.849 168.413C345.291 168.413 357 179.151 357 192.397Z" fill="#BFD881"/>
<path id="Fill 5" fill-rule="evenodd" clip-rule="evenodd" d="M342.912 183.458C342.912 193.43 334.097 201.513 323.225 201.513C312.353 201.513 303.539 193.43 303.539 183.458C303.539 173.487 312.353 165.404 323.225 165.404C334.097 165.404 342.912 173.487 342.912 183.458Z" fill="#BFD881"/>
<path id="Fill 6" fill-rule="evenodd" clip-rule="evenodd" d="M146.436 180.272C146.436 190.244 137.622 198.327 126.749 198.327C115.877 198.327 107.063 190.244 107.063 180.272C107.063 170.301 115.877 162.218 126.749 162.218C137.622 162.218 146.436 170.301 146.436 180.272Z" fill="#BFD881"/>
<path id="Fill 7" fill-rule="evenodd" clip-rule="evenodd" d="M137.944 197.618C137.944 207.589 129.13 215.672 118.258 215.672C107.385 215.672 98.5715 207.589 98.5715 197.618C98.5715 187.648 107.385 179.564 118.258 179.564C129.13 179.564 137.944 187.648 137.944 197.618Z" fill="#BFD881"/>
<path id="Fill 8" fill-rule="evenodd" clip-rule="evenodd" d="M158.016 159.741C158.016 169.712 149.202 177.795 138.329 177.795C127.457 177.795 118.643 169.712 118.643 159.741C118.643 149.769 127.457 141.686 138.329 141.686C149.202 141.686 158.016 149.769 158.016 159.741Z" fill="#BFD881"/>
<path id="Fill 9" fill-rule="evenodd" clip-rule="evenodd" d="M198.932 215.274H320.523V101.487H198.932V215.274Z" fill="#FFA9B1"/>
<path id="Fill 10" fill-rule="evenodd" clip-rule="evenodd" d="M304.408 75.1335H161.104V114.871H331.331L304.408 75.1335Z" fill="#A9555D"/>
<path id="Fill 11" fill-rule="evenodd" clip-rule="evenodd" d="M200.042 215.672H121.297V101.886L161.441 75.842L200.042 101.886V215.672Z" fill="#FDC3C9"/>
<path id="Fill 12" fill-rule="evenodd" clip-rule="evenodd" d="M115.643 113.735L111.319 108.748L161.579 72.0952L207.706 107.015L203.283 111.929L161.498 80.296L115.643 113.735Z" fill="#8C4F54"/>
<path id="Fill 13" fill-rule="evenodd" clip-rule="evenodd" d="M317.116 172.352H205.914C204.981 172.352 204.431 171.392 204.961 170.687L219.94 150.774C220.156 150.487 220.512 150.315 220.893 150.315H303.945C304.349 150.315 304.725 150.509 304.935 150.826L318.106 170.739C318.574 171.447 318.018 172.352 317.116 172.352Z" fill="#A9555D"/>
<path id="Fill 14" fill-rule="evenodd" clip-rule="evenodd" d="M135.049 215.85H186.58V169.652H135.049V215.85Z" fill="#9E764F"/>
<path id="Fill 15" fill-rule="evenodd" clip-rule="evenodd" d="M188.317 215.85H184.843V171.245H136.786V215.85H133.312V169.652C133.312 168.773 134.089 168.059 135.049 168.059H186.58C187.539 168.059 188.317 168.773 188.317 169.652V215.85Z" fill="#FCFCFC"/>
<path id="Fill 16" fill-rule="evenodd" clip-rule="evenodd" d="M221.079 143.81H239.091V123.857H221.079V143.81Z" fill="#9CC1DC"/>
<path id="Fill 17" fill-rule="evenodd" clip-rule="evenodd" d="M222.816 142.217H237.354V125.452H222.816V142.217ZM239.091 145.403H221.079C220.12 145.403 219.342 144.69 219.342 143.81V123.859C219.342 122.979 220.12 122.266 221.079 122.266H239.091C240.051 122.266 240.828 122.979 240.828 123.859V143.81C240.828 144.69 240.051 145.403 239.091 145.403Z" fill="#FFFFFE"/>
<path id="Fill 18" fill-rule="evenodd" clip-rule="evenodd" d="M220.065 216.027H239.462V179.033H220.065V216.027Z" fill="#9E764F"/>
<path id="Fill 19" fill-rule="evenodd" clip-rule="evenodd" d="M241.199 216.027H237.725V180.627H221.802V216.027H218.328V179.034C218.328 178.155 219.106 177.441 220.065 177.441H239.462C240.422 177.441 241.199 178.155 241.199 179.034V216.027Z" fill="#FCFCFC"/>
<path id="Fill 20" fill-rule="evenodd" clip-rule="evenodd" d="M175.535 120.6C175.081 112.983 168.222 106.927 159.801 106.927C151.38 106.927 144.521 112.983 144.067 120.6H144.023V147.262H175.579V120.6H175.535Z" fill="#A8CBE4"/>
<path id="Fill 21" fill-rule="evenodd" clip-rule="evenodd" d="M145.76 145.669H173.842V120.952L173.8 120.687C173.394 113.865 167.245 108.52 159.801 108.52C152.358 108.52 146.209 113.865 145.801 120.687L145.76 120.958V145.669ZM175.579 148.855H144.023C143.063 148.855 142.286 148.141 142.286 147.262V120.6C142.286 120.441 142.312 120.286 142.359 120.14C143.065 111.808 150.648 105.334 159.801 105.334C168.954 105.334 176.537 111.808 177.242 120.14C177.29 120.286 177.316 120.441 177.316 120.6V147.262C177.316 148.141 176.538 148.855 175.579 148.855Z" fill="#FFFFFE"/>
<path id="Fill 22" fill-rule="evenodd" clip-rule="evenodd" d="M158.064 146.643H161.538V106.818H158.064V146.643Z" fill="#FFFFFE"/>
<path id="Fill 23" fill-rule="evenodd" clip-rule="evenodd" d="M144.313 122.393H175.386V119.207H144.313V122.393Z" fill="#FFFFFE"/>
<path id="Fill 24" fill-rule="evenodd" clip-rule="evenodd" d="M223.637 198.857H235.892V183.458H223.637V198.857Z" fill="#9CC1DC"/>
<path id="Fill 25" fill-rule="evenodd" clip-rule="evenodd" d="M139.102 215.761H142.832V171.251H139.102V215.761Z" fill="#B99068"/>
<path id="Fill 26" fill-rule="evenodd" clip-rule="evenodd" d="M145.734 215.761H149.464V171.251H145.734V215.761Z" fill="#B99068"/>
<path id="Fill 27" fill-rule="evenodd" clip-rule="evenodd" d="M152.366 215.761H156.096V171.251H152.366V215.761Z" fill="#B99068"/>
<path id="Fill 28" fill-rule="evenodd" clip-rule="evenodd" d="M158.998 215.761H162.728V171.251H158.998V215.761Z" fill="#B99068"/>
<path id="Fill 29" fill-rule="evenodd" clip-rule="evenodd" d="M165.628 215.761H169.36V171.251H165.628V215.761Z" fill="#B99068"/>
<path id="Fill 30" fill-rule="evenodd" clip-rule="evenodd" d="M172.261 215.761H175.993V171.251H172.261V215.761Z" fill="#B99068"/>
<path id="Fill 31" fill-rule="evenodd" clip-rule="evenodd" d="M178.893 215.761H182.624V171.251H178.893V215.761Z" fill="#B99068"/>
<path id="Fill 32" fill-rule="evenodd" clip-rule="evenodd" d="M261.272 207.531H313.575V178.326H261.272V207.531Z" fill="#9CC1DC"/>
<path id="Fill 33" fill-rule="evenodd" clip-rule="evenodd" d="M263.009 205.938H311.837V179.919H263.009V205.938ZM313.575 209.124H261.272C260.312 209.124 259.535 208.41 259.535 207.531V178.326C259.535 177.446 260.312 176.733 261.272 176.733H313.575C314.535 176.733 315.312 177.446 315.312 178.326V207.531C315.312 208.41 314.535 209.124 313.575 209.124Z" fill="#FFFFFE"/>
<path id="Fill 34" fill-rule="evenodd" clip-rule="evenodd" d="M295.144 207H298.618V178.326H295.144V207Z" fill="#FFFFFE"/>
<path id="Fill 35" fill-rule="evenodd" clip-rule="evenodd" d="M277.484 207H280.958V178.326H277.484V207Z" fill="#FFFFFE"/>
<path id="Fill 36" fill-rule="evenodd" clip-rule="evenodd" d="M205.308 175.361H317.742V172.175H205.308V175.361Z" fill="#32424F"/>
<path id="Fill 37" fill-rule="evenodd" clip-rule="evenodd" d="M200.042 117.836H331.304V114.65H200.042V117.836Z" fill="#813C42"/>
<path id="Fill 38" fill-rule="evenodd" clip-rule="evenodd" d="M269.618 143.81H293.712V123.857H269.618V143.81Z" fill="#9CC1DC"/>
<path id="Fill 39" fill-rule="evenodd" clip-rule="evenodd" d="M271.355 142.217H291.975V125.452H271.355V142.217ZM293.712 145.403H269.618C268.658 145.403 267.881 144.69 267.881 143.81V123.859C267.881 122.979 268.658 122.266 269.618 122.266H293.712C294.672 122.266 295.449 122.979 295.449 123.859V143.81C295.449 144.69 294.672 145.403 293.712 145.403Z" fill="#FFFFFE"/>
<path id="Fill 40" fill-rule="evenodd" clip-rule="evenodd" d="M279.929 143.545H283.403V124.031H279.929V143.545Z" fill="#FFFFFE"/>
<path id="Fill 41" fill-rule="evenodd" clip-rule="evenodd" d="M221.223 133.279H239.27V130.093H221.223V133.279Z" fill="#FFFFFE"/>
<path id="Fill 42" fill-rule="evenodd" clip-rule="evenodd" d="M305.469 168.59H239.849C238.889 168.59 238.112 167.877 238.112 166.997C238.112 166.118 238.889 165.404 239.849 165.404H305.469C306.429 165.404 307.206 166.118 307.206 166.997C307.206 167.877 306.429 168.59 305.469 168.59Z" fill="#32424F"/>
<path id="Fill 43" fill-rule="evenodd" clip-rule="evenodd" d="M269.57 162.218H218.811C217.852 162.218 217.074 161.505 217.074 160.625C217.074 159.746 217.852 159.032 218.811 159.032H269.57C270.53 159.032 271.307 159.746 271.307 160.625C271.307 161.505 270.53 162.218 269.57 162.218Z" fill="#32424F"/>
<path id="Fill 44" fill-rule="evenodd" clip-rule="evenodd" d="M278.063 156.201H236.954C235.994 156.201 235.217 155.487 235.217 154.608C235.217 153.729 235.994 153.015 236.954 153.015H278.063C279.022 153.015 279.8 153.729 279.8 154.608C279.8 155.487 279.022 156.201 278.063 156.201Z" fill="#32424F"/>
<path id="Fill 45" fill-rule="evenodd" clip-rule="evenodd" d="M302.574 156.024H283.853C282.893 156.024 282.116 155.31 282.116 154.431C282.116 153.551 282.893 152.838 283.853 152.838H302.574C303.534 152.838 304.311 153.551 304.311 154.431C304.311 155.31 303.534 156.024 302.574 156.024Z" fill="#32424F"/>
<path id="Fill 46" fill-rule="evenodd" clip-rule="evenodd" d="M305.662 162.218H278.063C277.103 162.218 276.326 161.505 276.326 160.625C276.326 159.746 277.103 159.032 278.063 159.032H305.662C306.622 159.032 307.399 159.746 307.399 160.625C307.399 161.505 306.622 162.218 305.662 162.218Z" fill="#32424F"/>
<path id="Fill 47" fill-rule="evenodd" clip-rule="evenodd" d="M231.743 168.237H214.565C213.606 168.237 212.828 167.523 212.828 166.644C212.828 165.764 213.606 165.051 214.565 165.051H231.743C232.701 165.051 233.48 165.764 233.48 166.644C233.48 167.523 232.701 168.237 231.743 168.237Z" fill="#32424F"/>
<path id="Fill 48" fill-rule="evenodd" clip-rule="evenodd" d="M276.133 109.473H217.653C216.694 109.473 215.916 108.759 215.916 107.88C215.916 107 216.694 106.286 217.653 106.286H276.133C277.093 106.286 277.87 107 277.87 107.88C277.87 108.759 277.093 109.473 276.133 109.473Z" fill="#813C42"/>
<path id="Fill 49" fill-rule="evenodd" clip-rule="evenodd" d="M319.365 109.295H282.887C281.929 109.295 281.15 108.581 281.15 107.702C281.15 106.823 281.929 106.109 282.887 106.109H319.365C320.325 106.109 321.102 106.823 321.102 107.702C321.102 108.581 320.325 109.295 319.365 109.295Z" fill="#32424F"/>
<path id="Fill 50" fill-rule="evenodd" clip-rule="evenodd" d="M286.361 101.861H210.126C209.167 101.861 208.389 101.148 208.389 100.268C208.389 99.3888 209.167 98.6752 210.126 98.6752H286.361C287.321 98.6752 288.098 99.3888 288.098 100.268C288.098 101.148 287.321 101.861 286.361 101.861Z" fill="#813C42"/>
<path id="Fill 51" fill-rule="evenodd" clip-rule="evenodd" d="M315.698 101.508H293.503C292.544 101.508 291.766 100.794 291.766 99.9145C291.766 99.0352 292.544 98.3215 293.503 98.3215H315.698C316.657 98.3215 317.435 99.0352 317.435 99.9145C317.435 100.794 316.657 101.508 315.698 101.508Z" fill="#32424F"/>
<path id="Fill 52" fill-rule="evenodd" clip-rule="evenodd" d="M311.066 93.8961H212.635C211.675 93.8961 210.898 93.1824 210.898 92.3031C210.898 91.4238 211.675 90.7101 212.635 90.7101H311.066C312.025 90.7101 312.803 91.4238 312.803 92.3031C312.803 93.1824 312.025 93.8961 311.066 93.8961Z" fill="#813C42"/>
<path id="Fill 53" fill-rule="evenodd" clip-rule="evenodd" d="M249.113 87.1704H187.931C186.972 87.1704 186.194 86.4567 186.194 85.5774C186.194 84.698 186.972 83.9844 187.931 83.9844H249.113C250.072 83.9844 250.85 84.698 250.85 85.5774C250.85 86.4567 250.072 87.1704 249.113 87.1704Z" fill="#813C42"/>
<path id="Fill 54" fill-rule="evenodd" clip-rule="evenodd" d="M277.87 87.1704H256.253C255.294 87.1704 254.516 86.4567 254.516 85.5774C254.516 84.698 255.294 83.9844 256.253 83.9844H277.87C278.83 83.9844 279.607 84.698 279.607 85.5774C279.607 86.4567 278.83 87.1704 277.87 87.1704Z" fill="#32424F"/>
<path id="Fill 55" fill-rule="evenodd" clip-rule="evenodd" d="M306.047 87.3467H284.624C283.665 87.3467 282.887 86.633 282.887 85.7537C282.887 84.8743 283.665 84.1606 284.624 84.1606H306.047C307.007 84.1606 307.784 84.8743 307.784 85.7537C307.784 86.633 307.007 87.3467 306.047 87.3467Z" fill="#32424F"/>
<path id="Fill 56" fill-rule="evenodd" clip-rule="evenodd" d="M299.293 80.9746H180.79C179.83 80.9746 179.053 80.2609 179.053 79.3816C179.053 78.5022 179.83 77.7886 180.79 77.7886H299.293C300.253 77.7886 301.03 78.5022 301.03 79.3816C301.03 80.2609 300.253 80.9746 299.293 80.9746Z" fill="#813C42"/>
</g>
<circle id="Oval 1" cx="202.572" cy="37.0476" r="27" fill="#FAE7A3"/>
<path id="Oval 4_2" fill-rule="evenodd" clip-rule="evenodd" d="M226.593 66H196.683C187.469 66 180 59.8651 180 52.2973C180 44.7295 187.469 38.5946 196.683 38.5946C199.464 38.5946 202.085 39.1533 204.391 40.1414C207.601 32.4939 216.44 27 226.842 27C239.954 27 250.583 35.7304 250.583 46.5C250.583 46.7207 250.579 46.9406 250.57 47.1595C254.398 48.8485 257 52.1679 257 55.9865C257 61.5168 251.542 66 244.808 66H226.842C226.804 66 226.593 66 226.593 66H226.842H226.593Z" fill="#F6F6F8"/>
</g>
</g>
<defs>
<filter id="filter0_d_48_1474" x="0" y="0" width="332" height="208" filterUnits="userSpaceOnUse" color-interpolation-filters="sRGB">
<feFlood flood-opacity="0" result="BackgroundImageFix"/>
<feColorMatrix in="SourceAlpha" type="matrix" values="0 0 0 0 0 0 0 0 0 0 0 0 0 0 0 0 0 0 127 0" result="hardAlpha"/>
<feOffset/>
<feGaussianBlur stdDeviation="2"/>
<feComposite in2="hardAlpha" operator="out"/>
<feColorMatrix type="matrix" values="0 0 0 0 0 0 0 0 0 0 0 0 0 0 0 0 0 0 0.25 0"/>
<feBlend mode="normal" in2="BackgroundImageFix" result="effect1_dropShadow_48_1474"/>
<feBlend mode="normal" in="SourceGraphic" in2="effect1_dropShadow_48_1474" result="shape"/>
</filter>
<clipPath id="clip0_48_1474">
<rect x="4" y="4" width="324" height="200" rx="16" fill="white"/>
</clipPath>
</defs>
</svg>
